<mxfile host="Electron" agent="Mozilla/5.0 (Windows NT 10.0; Win64; x64) AppleWebKit/537.36 (KHTML, like Gecko) draw.io/24.7.17 Chrome/128.0.6613.36 Electron/32.0.1 Safari/537.36" version="24.7.17">
  <diagram name="Страница — 1" id="i1g2QYn1Ewez56ZIJARF">
    <mxGraphModel dx="2150" dy="1448" grid="1" gridSize="10" guides="1" tooltips="1" connect="1" arrows="1" fold="1" page="0" pageScale="1" pageWidth="827" pageHeight="1169" math="0" shadow="0">
      <root>
        <mxCell id="0" />
        <mxCell id="1" parent="0" />
        <mxCell id="Fwsatk4shX5yyOx8U_N0-1" style="edgeStyle=orthogonalEdgeStyle;rounded=0;orthogonalLoop=1;jettySize=auto;html=1;" parent="1" source="Fwsatk4shX5yyOx8U_N0-2" target="Fwsatk4shX5yyOx8U_N0-48" edge="1">
          <mxGeometry relative="1" as="geometry" />
        </mxCell>
        <mxCell id="Fwsatk4shX5yyOx8U_N0-2" value="Начало" style="ellipse;whiteSpace=wrap;html=1;fillColor=default;" parent="1" vertex="1">
          <mxGeometry x="-56.5" y="126.5" width="120" height="80" as="geometry" />
        </mxCell>
        <mxCell id="Fwsatk4shX5yyOx8U_N0-3" style="edgeStyle=orthogonalEdgeStyle;rounded=0;orthogonalLoop=1;jettySize=auto;html=1;" parent="1" source="Fwsatk4shX5yyOx8U_N0-4" target="Fwsatk4shX5yyOx8U_N0-41" edge="1">
          <mxGeometry relative="1" as="geometry" />
        </mxCell>
        <mxCell id="Fwsatk4shX5yyOx8U_N0-4" value="line = list(map(int, f.readline().split()))" style="shape=parallelogram;perimeter=parallelogramPerimeter;whiteSpace=wrap;html=1;fixedSize=1;" parent="1" vertex="1">
          <mxGeometry x="196" y="281" width="230" height="60" as="geometry" />
        </mxCell>
        <mxCell id="Fwsatk4shX5yyOx8U_N0-5" style="edgeStyle=orthogonalEdgeStyle;rounded=0;orthogonalLoop=1;jettySize=auto;html=1;entryX=0.5;entryY=0;entryDx=0;entryDy=0;exitX=1;exitY=0.5;exitDx=0;exitDy=0;" parent="1" source="Fwsatk4shX5yyOx8U_N0-43" target="Wh9DaOdv-PpbPZaOHFyv-1" edge="1">
          <mxGeometry relative="1" as="geometry">
            <Array as="points">
              <mxPoint x="690" y="212" />
              <mxPoint x="690" y="940" />
              <mxPoint x="362" y="940" />
            </Array>
            <mxPoint x="356.9852941176471" y="211.52941176470586" as="sourcePoint" />
          </mxGeometry>
        </mxCell>
        <mxCell id="Fwsatk4shX5yyOx8U_N0-6" style="edgeStyle=orthogonalEdgeStyle;rounded=0;orthogonalLoop=1;jettySize=auto;html=1;" parent="1" source="Fwsatk4shX5yyOx8U_N0-8" target="Fwsatk4shX5yyOx8U_N0-10" edge="1">
          <mxGeometry relative="1" as="geometry" />
        </mxCell>
        <mxCell id="Fwsatk4shX5yyOx8U_N0-7" style="edgeStyle=orthogonalEdgeStyle;rounded=0;orthogonalLoop=1;jettySize=auto;html=1;entryX=0.5;entryY=0;entryDx=0;entryDy=0;" parent="1" source="Fwsatk4shX5yyOx8U_N0-8" target="Fwsatk4shX5yyOx8U_N0-13" edge="1">
          <mxGeometry relative="1" as="geometry" />
        </mxCell>
        <mxCell id="Fwsatk4shX5yyOx8U_N0-8" value="line[0]&amp;gt;count" style="rhombus;whiteSpace=wrap;html=1;" parent="1" vertex="1">
          <mxGeometry x="271.5" y="508" width="80" height="80" as="geometry" />
        </mxCell>
        <mxCell id="Fwsatk4shX5yyOx8U_N0-9" style="edgeStyle=orthogonalEdgeStyle;rounded=0;orthogonalLoop=1;jettySize=auto;html=1;entryX=0.5;entryY=0;entryDx=0;entryDy=0;" parent="1" source="Fwsatk4shX5yyOx8U_N0-10" target="Fwsatk4shX5yyOx8U_N0-11" edge="1">
          <mxGeometry relative="1" as="geometry" />
        </mxCell>
        <mxCell id="Fwsatk4shX5yyOx8U_N0-10" value="count = line[0]" style="rounded=0;whiteSpace=wrap;html=1;" parent="1" vertex="1">
          <mxGeometry x="251.5" y="608" width="120" height="60" as="geometry" />
        </mxCell>
        <mxCell id="Fwsatk4shX5yyOx8U_N0-11" value="data.get(keys[change_pos]).append(line[1:])" style="rounded=0;whiteSpace=wrap;html=1;" parent="1" vertex="1">
          <mxGeometry x="191.5" y="698" width="240" height="60" as="geometry" />
        </mxCell>
        <mxCell id="Fwsatk4shX5yyOx8U_N0-12" value="" style="edgeStyle=orthogonalEdgeStyle;rounded=0;orthogonalLoop=1;jettySize=auto;html=1;" parent="1" source="Fwsatk4shX5yyOx8U_N0-13" target="Fwsatk4shX5yyOx8U_N0-15" edge="1">
          <mxGeometry relative="1" as="geometry" />
        </mxCell>
        <mxCell id="Fwsatk4shX5yyOx8U_N0-13" value="data[keys[change_pos]] = np.array(data.get(keys[change_pos]))" style="rounded=0;whiteSpace=wrap;html=1;" parent="1" vertex="1">
          <mxGeometry x="412.5" y="568" width="206" height="60" as="geometry" />
        </mxCell>
        <mxCell id="Fwsatk4shX5yyOx8U_N0-14" value="" style="edgeStyle=orthogonalEdgeStyle;rounded=0;orthogonalLoop=1;jettySize=auto;html=1;" parent="1" source="Fwsatk4shX5yyOx8U_N0-15" target="Fwsatk4shX5yyOx8U_N0-17" edge="1">
          <mxGeometry relative="1" as="geometry" />
        </mxCell>
        <mxCell id="Fwsatk4shX5yyOx8U_N0-15" value="count = 0" style="rounded=0;whiteSpace=wrap;html=1;" parent="1" vertex="1">
          <mxGeometry x="455.5" y="648" width="120" height="60" as="geometry" />
        </mxCell>
        <mxCell id="Fwsatk4shX5yyOx8U_N0-16" value="" style="edgeStyle=orthogonalEdgeStyle;rounded=0;orthogonalLoop=1;jettySize=auto;html=1;" parent="1" source="Fwsatk4shX5yyOx8U_N0-17" target="Fwsatk4shX5yyOx8U_N0-20" edge="1">
          <mxGeometry relative="1" as="geometry" />
        </mxCell>
        <mxCell id="Fwsatk4shX5yyOx8U_N0-17" value="change_pos += 1" style="rounded=0;whiteSpace=wrap;html=1;" parent="1" vertex="1">
          <mxGeometry x="455.5" y="728" width="120" height="60" as="geometry" />
        </mxCell>
        <mxCell id="Fwsatk4shX5yyOx8U_N0-18" value="Нет" style="text;html=1;align=center;verticalAlign=middle;resizable=0;points=[];autosize=1;strokeColor=none;fillColor=none;" parent="1" vertex="1">
          <mxGeometry x="351.5" y="516" width="40" height="30" as="geometry" />
        </mxCell>
        <mxCell id="Fwsatk4shX5yyOx8U_N0-19" value="Да" style="text;html=1;align=center;verticalAlign=middle;resizable=0;points=[];autosize=1;strokeColor=none;fillColor=none;" parent="1" vertex="1">
          <mxGeometry x="311.5" y="576" width="40" height="30" as="geometry" />
        </mxCell>
        <mxCell id="VBbj9UXmNhvao8wKRBxG-1" style="edgeStyle=orthogonalEdgeStyle;rounded=0;orthogonalLoop=1;jettySize=auto;html=1;entryX=0;entryY=0.5;entryDx=0;entryDy=0;exitX=0.531;exitY=1.002;exitDx=0;exitDy=0;exitPerimeter=0;" edge="1" parent="1" source="Fwsatk4shX5yyOx8U_N0-20" target="Fwsatk4shX5yyOx8U_N0-43">
          <mxGeometry relative="1" as="geometry">
            <mxPoint x="514" y="920" as="targetPoint" />
            <Array as="points">
              <mxPoint x="520" y="868" />
              <mxPoint x="520" y="920" />
              <mxPoint x="180" y="920" />
              <mxPoint x="180" y="212" />
            </Array>
          </mxGeometry>
        </mxCell>
        <mxCell id="Fwsatk4shX5yyOx8U_N0-20" value="data.get(keys[change_pos]).append(line[1:])" style="rounded=0;whiteSpace=wrap;html=1;" parent="1" vertex="1">
          <mxGeometry x="395.5" y="808" width="240" height="60" as="geometry" />
        </mxCell>
        <mxCell id="VBbj9UXmNhvao8wKRBxG-6" value="" style="edgeStyle=orthogonalEdgeStyle;rounded=0;orthogonalLoop=1;jettySize=auto;html=1;" edge="1" parent="1" source="Fwsatk4shX5yyOx8U_N0-23" target="VBbj9UXmNhvao8wKRBxG-3">
          <mxGeometry relative="1" as="geometry" />
        </mxCell>
        <mxCell id="Fwsatk4shX5yyOx8U_N0-23" value="keys = list(data.keys())" style="rounded=0;whiteSpace=wrap;html=1;" parent="1" vertex="1">
          <mxGeometry x="-56.5" y="320.5" width="120" height="60" as="geometry" />
        </mxCell>
        <mxCell id="Fwsatk4shX5yyOx8U_N0-24" value="1" style="text;html=1;align=center;verticalAlign=middle;resizable=0;points=[];autosize=1;strokeColor=none;fillColor=none;" parent="1" vertex="1">
          <mxGeometry x="75.5" y="120.5" width="25" height="26" as="geometry" />
        </mxCell>
        <mxCell id="Fwsatk4shX5yyOx8U_N0-25" value="2" style="text;html=1;align=center;verticalAlign=middle;resizable=0;points=[];autosize=1;strokeColor=none;fillColor=none;" parent="1" vertex="1">
          <mxGeometry x="58.5" y="209.5" width="25" height="26" as="geometry" />
        </mxCell>
        <mxCell id="Fwsatk4shX5yyOx8U_N0-26" value="3" style="text;html=1;align=center;verticalAlign=middle;resizable=0;points=[];autosize=1;strokeColor=none;fillColor=none;" parent="1" vertex="1">
          <mxGeometry x="58.5" y="312.5" width="25" height="26" as="geometry" />
        </mxCell>
        <mxCell id="Fwsatk4shX5yyOx8U_N0-27" value="4" style="text;html=1;align=center;verticalAlign=middle;resizable=0;points=[];autosize=1;strokeColor=none;fillColor=none;" parent="1" vertex="1">
          <mxGeometry x="325" y="164" width="25" height="26" as="geometry" />
        </mxCell>
        <mxCell id="Fwsatk4shX5yyOx8U_N0-28" value="5" style="text;html=1;align=center;verticalAlign=middle;resizable=0;points=[];autosize=1;strokeColor=none;fillColor=none;" parent="1" vertex="1">
          <mxGeometry x="405" y="255" width="25" height="26" as="geometry" />
        </mxCell>
        <mxCell id="Fwsatk4shX5yyOx8U_N0-29" value="8" style="text;html=1;align=center;verticalAlign=middle;resizable=0;points=[];autosize=1;strokeColor=none;fillColor=none;" parent="1" vertex="1">
          <mxGeometry x="320.5" y="500" width="25" height="26" as="geometry" />
        </mxCell>
        <mxCell id="Fwsatk4shX5yyOx8U_N0-30" value="9" style="text;html=1;align=center;verticalAlign=middle;resizable=0;points=[];autosize=1;strokeColor=none;fillColor=none;" parent="1" vertex="1">
          <mxGeometry x="256.5" y="580" width="25" height="26" as="geometry" />
        </mxCell>
        <mxCell id="Fwsatk4shX5yyOx8U_N0-31" value="10" style="text;html=1;align=center;verticalAlign=middle;resizable=0;points=[];autosize=1;strokeColor=none;fillColor=none;" parent="1" vertex="1">
          <mxGeometry x="397.5" y="667" width="31" height="26" as="geometry" />
        </mxCell>
        <mxCell id="Fwsatk4shX5yyOx8U_N0-32" value="11" style="text;html=1;align=center;verticalAlign=middle;resizable=0;points=[];autosize=1;strokeColor=none;fillColor=none;" parent="1" vertex="1">
          <mxGeometry x="568.5" y="540" width="30" height="26" as="geometry" />
        </mxCell>
        <mxCell id="Fwsatk4shX5yyOx8U_N0-33" value="12" style="text;html=1;align=center;verticalAlign=middle;resizable=0;points=[];autosize=1;strokeColor=none;fillColor=none;" parent="1" vertex="1">
          <mxGeometry x="573.5" y="653" width="31" height="26" as="geometry" />
        </mxCell>
        <mxCell id="Fwsatk4shX5yyOx8U_N0-34" value="13" style="text;html=1;align=center;verticalAlign=middle;resizable=0;points=[];autosize=1;strokeColor=none;fillColor=none;" parent="1" vertex="1">
          <mxGeometry x="567.5" y="723" width="31" height="26" as="geometry" />
        </mxCell>
        <mxCell id="Fwsatk4shX5yyOx8U_N0-35" value="14" style="text;html=1;align=center;verticalAlign=middle;resizable=0;points=[];autosize=1;strokeColor=none;fillColor=none;" parent="1" vertex="1">
          <mxGeometry x="612.5" y="783" width="31" height="26" as="geometry" />
        </mxCell>
        <mxCell id="Fwsatk4shX5yyOx8U_N0-36" value="" style="endArrow=none;html=1;rounded=0;entryX=0.5;entryY=1;entryDx=0;entryDy=0;" parent="1" target="Fwsatk4shX5yyOx8U_N0-11" edge="1">
          <mxGeometry width="50" height="50" relative="1" as="geometry">
            <mxPoint x="311.5" y="888" as="sourcePoint" />
            <mxPoint x="294" y="792" as="targetPoint" />
          </mxGeometry>
        </mxCell>
        <mxCell id="Fwsatk4shX5yyOx8U_N0-38" value="" style="endArrow=none;html=1;rounded=0;entryX=0.519;entryY=0.988;entryDx=0;entryDy=0;entryPerimeter=0;" parent="1" edge="1" target="Fwsatk4shX5yyOx8U_N0-20">
          <mxGeometry width="50" height="50" relative="1" as="geometry">
            <mxPoint x="311.5" y="888" as="sourcePoint" />
            <mxPoint x="520" y="870" as="targetPoint" />
            <Array as="points">
              <mxPoint x="520" y="888" />
            </Array>
          </mxGeometry>
        </mxCell>
        <mxCell id="Fwsatk4shX5yyOx8U_N0-39" style="edgeStyle=orthogonalEdgeStyle;rounded=0;orthogonalLoop=1;jettySize=auto;html=1;entryX=0.5;entryY=0;entryDx=0;entryDy=0;" parent="1" source="Fwsatk4shX5yyOx8U_N0-41" target="Fwsatk4shX5yyOx8U_N0-8" edge="1">
          <mxGeometry relative="1" as="geometry" />
        </mxCell>
        <mxCell id="Fwsatk4shX5yyOx8U_N0-40" style="edgeStyle=orthogonalEdgeStyle;rounded=0;orthogonalLoop=1;jettySize=auto;html=1;entryX=0.5;entryY=0;entryDx=0;entryDy=0;" parent="1" source="Fwsatk4shX5yyOx8U_N0-41" target="Fwsatk4shX5yyOx8U_N0-46" edge="1">
          <mxGeometry relative="1" as="geometry" />
        </mxCell>
        <mxCell id="Fwsatk4shX5yyOx8U_N0-41" value="len(line) == 0" style="rhombus;whiteSpace=wrap;html=1;" parent="1" vertex="1">
          <mxGeometry x="270" y="368" width="80" height="80" as="geometry" />
        </mxCell>
        <mxCell id="Fwsatk4shX5yyOx8U_N0-42" value="" style="edgeStyle=orthogonalEdgeStyle;rounded=0;orthogonalLoop=1;jettySize=auto;html=1;" parent="1" source="Fwsatk4shX5yyOx8U_N0-43" target="Fwsatk4shX5yyOx8U_N0-4" edge="1">
          <mxGeometry relative="1" as="geometry" />
        </mxCell>
        <mxCell id="Fwsatk4shX5yyOx8U_N0-43" value="flag == True" style="rhombus;whiteSpace=wrap;html=1;" parent="1" vertex="1">
          <mxGeometry x="271" y="171.5" width="80" height="80" as="geometry" />
        </mxCell>
        <mxCell id="Fwsatk4shX5yyOx8U_N0-44" value="нет" style="text;html=1;align=center;verticalAlign=middle;resizable=0;points=[];autosize=1;strokeColor=none;fillColor=none;" parent="1" vertex="1">
          <mxGeometry x="262" y="440" width="36" height="26" as="geometry" />
        </mxCell>
        <mxCell id="Fwsatk4shX5yyOx8U_N0-45" style="edgeStyle=orthogonalEdgeStyle;rounded=0;orthogonalLoop=1;jettySize=auto;html=1;entryX=0;entryY=0.5;entryDx=0;entryDy=0;" parent="1" source="Fwsatk4shX5yyOx8U_N0-46" target="Fwsatk4shX5yyOx8U_N0-43" edge="1">
          <mxGeometry relative="1" as="geometry">
            <Array as="points">
              <mxPoint x="472" y="520" />
              <mxPoint x="660" y="520" />
              <mxPoint x="660" y="930" />
              <mxPoint x="161" y="930" />
              <mxPoint x="161" y="212" />
            </Array>
          </mxGeometry>
        </mxCell>
        <mxCell id="Fwsatk4shX5yyOx8U_N0-46" value="flag = False" style="rounded=0;whiteSpace=wrap;html=1;" parent="1" vertex="1">
          <mxGeometry x="411" y="429" width="120" height="60" as="geometry" />
        </mxCell>
        <mxCell id="Fwsatk4shX5yyOx8U_N0-47" style="edgeStyle=orthogonalEdgeStyle;rounded=0;orthogonalLoop=1;jettySize=auto;html=1;entryX=0.5;entryY=0;entryDx=0;entryDy=0;" parent="1" source="Fwsatk4shX5yyOx8U_N0-48" target="Fwsatk4shX5yyOx8U_N0-23" edge="1">
          <mxGeometry relative="1" as="geometry" />
        </mxCell>
        <mxCell id="Fwsatk4shX5yyOx8U_N0-48" value="with open(&#39;4731_my.csv&#39;) as f" style="rounded=0;whiteSpace=wrap;html=1;" parent="1" vertex="1">
          <mxGeometry x="-80" y="235.5" width="167" height="60" as="geometry" />
        </mxCell>
        <mxCell id="Fwsatk4shX5yyOx8U_N0-49" value="6" style="text;html=1;align=center;verticalAlign=middle;resizable=0;points=[];autosize=1;strokeColor=none;fillColor=none;" parent="1" vertex="1">
          <mxGeometry x="337" y="372" width="25" height="26" as="geometry" />
        </mxCell>
        <mxCell id="Fwsatk4shX5yyOx8U_N0-50" value="7" style="text;html=1;align=center;verticalAlign=middle;resizable=0;points=[];autosize=1;strokeColor=none;fillColor=none;" parent="1" vertex="1">
          <mxGeometry x="507" y="398" width="25" height="26" as="geometry" />
        </mxCell>
        <mxCell id="Fwsatk4shX5yyOx8U_N0-51" value="да" style="text;html=1;align=center;verticalAlign=middle;resizable=0;points=[];autosize=1;strokeColor=none;fillColor=none;" parent="1" vertex="1">
          <mxGeometry x="337" y="408" width="32" height="26" as="geometry" />
        </mxCell>
        <mxCell id="Fwsatk4shX5yyOx8U_N0-52" value="Да" style="text;html=1;align=center;verticalAlign=middle;resizable=0;points=[];autosize=1;strokeColor=none;fillColor=none;" parent="1" vertex="1">
          <mxGeometry x="277" y="237" width="33" height="26" as="geometry" />
        </mxCell>
        <mxCell id="Fwsatk4shX5yyOx8U_N0-53" value="Нет" style="text;html=1;align=center;verticalAlign=middle;resizable=0;points=[];autosize=1;strokeColor=none;fillColor=none;" parent="1" vertex="1">
          <mxGeometry x="350" y="188" width="38" height="26" as="geometry" />
        </mxCell>
        <mxCell id="Fwsatk4shX5yyOx8U_N0-56" style="edgeStyle=orthogonalEdgeStyle;rounded=0;orthogonalLoop=1;jettySize=auto;html=1;entryX=0.5;entryY=0;entryDx=0;entryDy=0;" parent="1" target="Fwsatk4shX5yyOx8U_N0-55" edge="1">
          <mxGeometry relative="1" as="geometry">
            <mxPoint x="922.5" y="1410" as="sourcePoint" />
          </mxGeometry>
        </mxCell>
        <mxCell id="QlbwmsowmwymSLLZ0Lnm-7" style="edgeStyle=orthogonalEdgeStyle;rounded=0;orthogonalLoop=1;jettySize=auto;html=1;" parent="1" source="Fwsatk4shX5yyOx8U_N0-55" target="QlbwmsowmwymSLLZ0Lnm-1" edge="1">
          <mxGeometry relative="1" as="geometry" />
        </mxCell>
        <mxCell id="Fwsatk4shX5yyOx8U_N0-55" value="u = fischer_tree_class(data.get(&quot;A&quot;), data.get(&quot;B&quot;), data.get(&quot;C&quot;))" style="shape=process;whiteSpace=wrap;html=1;backgroundOutline=1;" parent="1" vertex="1">
          <mxGeometry x="750" y="1454" width="345" height="60" as="geometry" />
        </mxCell>
        <mxCell id="Fwsatk4shX5yyOx8U_N0-57" value="&amp;nbsp;fischer_tree_class(class1, class2, class3):" style="text;html=1;align=center;verticalAlign=middle;resizable=0;points=[];autosize=1;strokeColor=none;fillColor=none;" parent="1" vertex="1">
          <mxGeometry x="2560" y="-9" width="250" height="30" as="geometry" />
        </mxCell>
        <mxCell id="Fwsatk4shX5yyOx8U_N0-72" style="edgeStyle=orthogonalEdgeStyle;rounded=0;orthogonalLoop=1;jettySize=auto;html=1;" parent="1" source="Fwsatk4shX5yyOx8U_N0-59" target="Fwsatk4shX5yyOx8U_N0-60" edge="1">
          <mxGeometry relative="1" as="geometry" />
        </mxCell>
        <mxCell id="Fwsatk4shX5yyOx8U_N0-59" value="&lt;span style=&quot;text-wrap: nowrap;&quot;&gt;&amp;nbsp;fischer_tree_class(class1, class2, class3):&lt;/span&gt;" style="ellipse;whiteSpace=wrap;html=1;" parent="1" vertex="1">
          <mxGeometry x="2572.5" y="67" width="245" height="104" as="geometry" />
        </mxCell>
        <mxCell id="Fwsatk4shX5yyOx8U_N0-73" style="edgeStyle=orthogonalEdgeStyle;rounded=0;orthogonalLoop=1;jettySize=auto;html=1;entryX=0.5;entryY=0;entryDx=0;entryDy=0;" parent="1" source="Fwsatk4shX5yyOx8U_N0-60" target="Fwsatk4shX5yyOx8U_N0-61" edge="1">
          <mxGeometry relative="1" as="geometry" />
        </mxCell>
        <mxCell id="Fwsatk4shX5yyOx8U_N0-60" value="mean1 = np.mean(class1, axis=0)" style="whiteSpace=wrap;html=1;" parent="1" vertex="1">
          <mxGeometry x="2635" y="211" width="120" height="60" as="geometry" />
        </mxCell>
        <mxCell id="Fwsatk4shX5yyOx8U_N0-74" style="edgeStyle=orthogonalEdgeStyle;rounded=0;orthogonalLoop=1;jettySize=auto;html=1;entryX=0.5;entryY=0;entryDx=0;entryDy=0;" parent="1" source="Fwsatk4shX5yyOx8U_N0-61" target="Fwsatk4shX5yyOx8U_N0-62" edge="1">
          <mxGeometry relative="1" as="geometry" />
        </mxCell>
        <mxCell id="Fwsatk4shX5yyOx8U_N0-61" value="std1 = np.std(class1, axis=0)" style="rounded=0;whiteSpace=wrap;html=1;" parent="1" vertex="1">
          <mxGeometry x="2635" y="301" width="120" height="60" as="geometry" />
        </mxCell>
        <mxCell id="Fwsatk4shX5yyOx8U_N0-75" style="edgeStyle=orthogonalEdgeStyle;rounded=0;orthogonalLoop=1;jettySize=auto;html=1;" parent="1" source="Fwsatk4shX5yyOx8U_N0-62" target="Fwsatk4shX5yyOx8U_N0-63" edge="1">
          <mxGeometry relative="1" as="geometry" />
        </mxCell>
        <mxCell id="Fwsatk4shX5yyOx8U_N0-62" value="mean2 = np.mean(class2, axis=0)" style="rounded=0;whiteSpace=wrap;html=1;" parent="1" vertex="1">
          <mxGeometry x="2635" y="392.5" width="120" height="60" as="geometry" />
        </mxCell>
        <mxCell id="Fwsatk4shX5yyOx8U_N0-76" style="edgeStyle=orthogonalEdgeStyle;rounded=0;orthogonalLoop=1;jettySize=auto;html=1;entryX=0.5;entryY=0;entryDx=0;entryDy=0;" parent="1" source="Fwsatk4shX5yyOx8U_N0-63" target="Fwsatk4shX5yyOx8U_N0-64" edge="1">
          <mxGeometry relative="1" as="geometry" />
        </mxCell>
        <mxCell id="Fwsatk4shX5yyOx8U_N0-63" value="std2 = np.std(class2, axis=0)" style="rounded=0;whiteSpace=wrap;html=1;" parent="1" vertex="1">
          <mxGeometry x="2635" y="481" width="120" height="60" as="geometry" />
        </mxCell>
        <mxCell id="Fwsatk4shX5yyOx8U_N0-79" style="edgeStyle=orthogonalEdgeStyle;rounded=0;orthogonalLoop=1;jettySize=auto;html=1;" parent="1" source="Fwsatk4shX5yyOx8U_N0-64" edge="1">
          <mxGeometry relative="1" as="geometry">
            <mxPoint x="2695" y="661" as="targetPoint" />
          </mxGeometry>
        </mxCell>
        <mxCell id="Fwsatk4shX5yyOx8U_N0-64" value="mean3 = np.mean(class3, axis=0)" style="whiteSpace=wrap;html=1;" parent="1" vertex="1">
          <mxGeometry x="2635" y="574" width="120" height="60" as="geometry" />
        </mxCell>
        <mxCell id="Fwsatk4shX5yyOx8U_N0-92" style="edgeStyle=orthogonalEdgeStyle;rounded=0;orthogonalLoop=1;jettySize=auto;html=1;entryX=0.5;entryY=0;entryDx=0;entryDy=0;" parent="1" source="Fwsatk4shX5yyOx8U_N0-65" target="Fwsatk4shX5yyOx8U_N0-66" edge="1">
          <mxGeometry relative="1" as="geometry" />
        </mxCell>
        <mxCell id="Fwsatk4shX5yyOx8U_N0-65" value="std3 = np.std(class3, axis=0)" style="rounded=0;whiteSpace=wrap;html=1;" parent="1" vertex="1">
          <mxGeometry x="2870" y="180" width="120" height="60" as="geometry" />
        </mxCell>
        <mxCell id="Fwsatk4shX5yyOx8U_N0-93" style="edgeStyle=orthogonalEdgeStyle;rounded=0;orthogonalLoop=1;jettySize=auto;html=1;entryX=0.5;entryY=0;entryDx=0;entryDy=0;" parent="1" source="Fwsatk4shX5yyOx8U_N0-66" target="Fwsatk4shX5yyOx8U_N0-67" edge="1">
          <mxGeometry relative="1" as="geometry" />
        </mxCell>
        <mxCell id="Fwsatk4shX5yyOx8U_N0-66" value="ix = (mean1 - mean2 - mean3) ** 2 / (std1 ** 2 + std2 ** 2 + std3 ** 2)" style="rounded=0;whiteSpace=wrap;html=1;" parent="1" vertex="1">
          <mxGeometry x="2870" y="280" width="120" height="60" as="geometry" />
        </mxCell>
        <mxCell id="Fwsatk4shX5yyOx8U_N0-94" style="edgeStyle=orthogonalEdgeStyle;rounded=0;orthogonalLoop=1;jettySize=auto;html=1;entryX=0.5;entryY=0;entryDx=0;entryDy=0;" parent="1" source="Fwsatk4shX5yyOx8U_N0-67" target="Fwsatk4shX5yyOx8U_N0-68" edge="1">
          <mxGeometry relative="1" as="geometry" />
        </mxCell>
        <mxCell id="Fwsatk4shX5yyOx8U_N0-67" value="indexix = np.argsort(ix)" style="rounded=0;whiteSpace=wrap;html=1;" parent="1" vertex="1">
          <mxGeometry x="2870" y="369" width="120" height="60" as="geometry" />
        </mxCell>
        <mxCell id="TXZZ_ZGlrFiqUkK3oK3g-15" value="" style="edgeStyle=orthogonalEdgeStyle;rounded=0;orthogonalLoop=1;jettySize=auto;html=1;" parent="1" source="Fwsatk4shX5yyOx8U_N0-68" target="Fwsatk4shX5yyOx8U_N0-69" edge="1">
          <mxGeometry relative="1" as="geometry" />
        </mxCell>
        <mxCell id="Fwsatk4shX5yyOx8U_N0-68" value="return [indexix[-1] + 1, ix[indexix[-1]], indexix[-2] + 1, ix[indexix[-2]]]" style="rounded=0;whiteSpace=wrap;html=1;" parent="1" vertex="1">
          <mxGeometry x="2870" y="453.5" width="120" height="60" as="geometry" />
        </mxCell>
        <mxCell id="Fwsatk4shX5yyOx8U_N0-69" value="выход" style="ellipse;whiteSpace=wrap;html=1;" parent="1" vertex="1">
          <mxGeometry x="2870" y="567" width="120" height="80" as="geometry" />
        </mxCell>
        <mxCell id="Fwsatk4shX5yyOx8U_N0-70" value="7" style="ellipse;whiteSpace=wrap;html=1;aspect=fixed;" parent="1" vertex="1">
          <mxGeometry x="2681.5" y="663" width="27" height="27" as="geometry" />
        </mxCell>
        <mxCell id="Fwsatk4shX5yyOx8U_N0-91" style="edgeStyle=orthogonalEdgeStyle;rounded=0;orthogonalLoop=1;jettySize=auto;html=1;entryX=0.5;entryY=0;entryDx=0;entryDy=0;" parent="1" source="Fwsatk4shX5yyOx8U_N0-71" target="Fwsatk4shX5yyOx8U_N0-65" edge="1">
          <mxGeometry relative="1" as="geometry" />
        </mxCell>
        <mxCell id="Fwsatk4shX5yyOx8U_N0-71" value="7" style="ellipse;whiteSpace=wrap;html=1;aspect=fixed;" parent="1" vertex="1">
          <mxGeometry x="2916.5" y="134" width="27" height="27" as="geometry" />
        </mxCell>
        <mxCell id="Fwsatk4shX5yyOx8U_N0-80" value="1" style="text;html=1;align=center;verticalAlign=middle;resizable=0;points=[];autosize=1;strokeColor=none;fillColor=none;" parent="1" vertex="1">
          <mxGeometry x="2735" y="89" width="30" height="30" as="geometry" />
        </mxCell>
        <mxCell id="Fwsatk4shX5yyOx8U_N0-81" value="2" style="text;html=1;align=center;verticalAlign=middle;resizable=0;points=[];autosize=1;strokeColor=none;fillColor=none;" parent="1" vertex="1">
          <mxGeometry x="2735" y="179" width="30" height="30" as="geometry" />
        </mxCell>
        <mxCell id="Fwsatk4shX5yyOx8U_N0-82" value="3" style="text;html=1;align=center;verticalAlign=middle;resizable=0;points=[];autosize=1;strokeColor=none;fillColor=none;" parent="1" vertex="1">
          <mxGeometry x="2735" y="269" width="30" height="30" as="geometry" />
        </mxCell>
        <mxCell id="Fwsatk4shX5yyOx8U_N0-83" value="4" style="text;html=1;align=center;verticalAlign=middle;resizable=0;points=[];autosize=1;strokeColor=none;fillColor=none;" parent="1" vertex="1">
          <mxGeometry x="2735" y="359" width="30" height="30" as="geometry" />
        </mxCell>
        <mxCell id="Fwsatk4shX5yyOx8U_N0-84" value="5" style="text;html=1;align=center;verticalAlign=middle;resizable=0;points=[];autosize=1;strokeColor=none;fillColor=none;" parent="1" vertex="1">
          <mxGeometry x="2735" y="449" width="30" height="30" as="geometry" />
        </mxCell>
        <mxCell id="Fwsatk4shX5yyOx8U_N0-85" value="6" style="text;html=1;align=center;verticalAlign=middle;resizable=0;points=[];autosize=1;strokeColor=none;fillColor=none;" parent="1" vertex="1">
          <mxGeometry x="2725" y="539" width="30" height="30" as="geometry" />
        </mxCell>
        <mxCell id="Fwsatk4shX5yyOx8U_N0-86" value="8" style="text;html=1;align=center;verticalAlign=middle;resizable=0;points=[];autosize=1;strokeColor=none;fillColor=none;" parent="1" vertex="1">
          <mxGeometry x="2971.5" y="150" width="30" height="30" as="geometry" />
        </mxCell>
        <mxCell id="Fwsatk4shX5yyOx8U_N0-87" value="9" style="text;html=1;align=center;verticalAlign=middle;resizable=0;points=[];autosize=1;strokeColor=none;fillColor=none;" parent="1" vertex="1">
          <mxGeometry x="2971.5" y="250" width="30" height="30" as="geometry" />
        </mxCell>
        <mxCell id="Fwsatk4shX5yyOx8U_N0-88" value="10" style="text;html=1;align=center;verticalAlign=middle;resizable=0;points=[];autosize=1;strokeColor=none;fillColor=none;" parent="1" vertex="1">
          <mxGeometry x="2956.5" y="340" width="40" height="30" as="geometry" />
        </mxCell>
        <mxCell id="Fwsatk4shX5yyOx8U_N0-89" value="11" style="text;html=1;align=center;verticalAlign=middle;resizable=0;points=[];autosize=1;strokeColor=none;fillColor=none;" parent="1" vertex="1">
          <mxGeometry x="2986.5" y="429" width="40" height="30" as="geometry" />
        </mxCell>
        <mxCell id="Fwsatk4shX5yyOx8U_N0-90" value="12" style="text;html=1;align=center;verticalAlign=middle;resizable=0;points=[];autosize=1;strokeColor=none;fillColor=none;" parent="1" vertex="1">
          <mxGeometry x="2956.5" y="523" width="40" height="30" as="geometry" />
        </mxCell>
        <mxCell id="QlbwmsowmwymSLLZ0Lnm-8" style="edgeStyle=orthogonalEdgeStyle;rounded=0;orthogonalLoop=1;jettySize=auto;html=1;entryX=0.5;entryY=0;entryDx=0;entryDy=0;" parent="1" source="QlbwmsowmwymSLLZ0Lnm-1" target="QlbwmsowmwymSLLZ0Lnm-2" edge="1">
          <mxGeometry relative="1" as="geometry" />
        </mxCell>
        <mxCell id="QlbwmsowmwymSLLZ0Lnm-1" value="plot.subplot(2,1,1)" style="rounded=0;whiteSpace=wrap;html=1;" parent="1" vertex="1">
          <mxGeometry x="793.75" y="1538" width="257.5" height="60" as="geometry" />
        </mxCell>
        <mxCell id="QlbwmsowmwymSLLZ0Lnm-9" style="edgeStyle=orthogonalEdgeStyle;rounded=0;orthogonalLoop=1;jettySize=auto;html=1;entryX=0.5;entryY=0;entryDx=0;entryDy=0;" parent="1" source="QlbwmsowmwymSLLZ0Lnm-2" target="QlbwmsowmwymSLLZ0Lnm-4" edge="1">
          <mxGeometry relative="1" as="geometry" />
        </mxCell>
        <mxCell id="QlbwmsowmwymSLLZ0Lnm-2" value="xa = data.get(&quot;A&quot;)[:, u[0] - 1]" style="rounded=0;whiteSpace=wrap;html=1;" parent="1" vertex="1">
          <mxGeometry x="838.75" y="1622" width="167.5" height="60" as="geometry" />
        </mxCell>
        <mxCell id="TXZZ_ZGlrFiqUkK3oK3g-3" value="" style="edgeStyle=orthogonalEdgeStyle;rounded=0;orthogonalLoop=1;jettySize=auto;html=1;" parent="1" source="QlbwmsowmwymSLLZ0Lnm-3" target="TXZZ_ZGlrFiqUkK3oK3g-1" edge="1">
          <mxGeometry relative="1" as="geometry" />
        </mxCell>
        <mxCell id="QlbwmsowmwymSLLZ0Lnm-3" value="xb = data.get(&quot;B&quot;)[:, u[0] - 1]" style="rounded=0;whiteSpace=wrap;html=1;" parent="1" vertex="1">
          <mxGeometry x="833.76" y="1892" width="177.5" height="60" as="geometry" />
        </mxCell>
        <mxCell id="QlbwmsowmwymSLLZ0Lnm-10" style="edgeStyle=orthogonalEdgeStyle;rounded=0;orthogonalLoop=1;jettySize=auto;html=1;entryX=0.5;entryY=0;entryDx=0;entryDy=0;" parent="1" source="QlbwmsowmwymSLLZ0Lnm-4" target="QlbwmsowmwymSLLZ0Lnm-6" edge="1">
          <mxGeometry relative="1" as="geometry" />
        </mxCell>
        <mxCell id="QlbwmsowmwymSLLZ0Lnm-4" value="ya = data.get(&quot;A&quot;)[:, u[2] - 1]" style="rounded=0;whiteSpace=wrap;html=1;" parent="1" vertex="1">
          <mxGeometry x="843.13" y="1708" width="158.75" height="60" as="geometry" />
        </mxCell>
        <mxCell id="QlbwmsowmwymSLLZ0Lnm-24" style="edgeStyle=orthogonalEdgeStyle;rounded=0;orthogonalLoop=1;jettySize=auto;html=1;entryX=0.5;entryY=0;entryDx=0;entryDy=0;" parent="1" source="QlbwmsowmwymSLLZ0Lnm-5" target="QlbwmsowmwymSLLZ0Lnm-14" edge="1">
          <mxGeometry relative="1" as="geometry" />
        </mxCell>
        <mxCell id="QlbwmsowmwymSLLZ0Lnm-5" value="yb = data.get(&quot;B&quot;)[:, u[2] - 1]" style="rounded=0;whiteSpace=wrap;html=1;" parent="1" vertex="1">
          <mxGeometry x="1185" y="1423.62" width="197.5" height="60" as="geometry" />
        </mxCell>
        <mxCell id="QlbwmsowmwymSLLZ0Lnm-11" style="edgeStyle=orthogonalEdgeStyle;rounded=0;orthogonalLoop=1;jettySize=auto;html=1;entryX=0.5;entryY=0;entryDx=0;entryDy=0;" parent="1" source="QlbwmsowmwymSLLZ0Lnm-6" target="QlbwmsowmwymSLLZ0Lnm-3" edge="1">
          <mxGeometry relative="1" as="geometry" />
        </mxCell>
        <mxCell id="QlbwmsowmwymSLLZ0Lnm-6" value="plot.scatter(xa, ya,marker=&#39;x&#39;, c=&#39;red&#39;)" style="rounded=0;whiteSpace=wrap;html=1;" parent="1" vertex="1">
          <mxGeometry x="812.51" y="1802" width="220" height="60" as="geometry" />
        </mxCell>
        <mxCell id="QlbwmsowmwymSLLZ0Lnm-13" style="edgeStyle=orthogonalEdgeStyle;rounded=0;orthogonalLoop=1;jettySize=auto;html=1;entryX=0.5;entryY=0;entryDx=0;entryDy=0;" parent="1" source="QlbwmsowmwymSLLZ0Lnm-14" target="QlbwmsowmwymSLLZ0Lnm-16" edge="1">
          <mxGeometry relative="1" as="geometry" />
        </mxCell>
        <mxCell id="QlbwmsowmwymSLLZ0Lnm-14" value="plot.scatter(xb, yb, c=&#39;blue&#39;)" style="rounded=0;whiteSpace=wrap;html=1;" parent="1" vertex="1">
          <mxGeometry x="1195" y="1514.62" width="177.5" height="60" as="geometry" />
        </mxCell>
        <mxCell id="QlbwmsowmwymSLLZ0Lnm-15" style="edgeStyle=orthogonalEdgeStyle;rounded=0;orthogonalLoop=1;jettySize=auto;html=1;entryX=0.5;entryY=0;entryDx=0;entryDy=0;" parent="1" source="QlbwmsowmwymSLLZ0Lnm-16" target="QlbwmsowmwymSLLZ0Lnm-20" edge="1">
          <mxGeometry relative="1" as="geometry" />
        </mxCell>
        <mxCell id="QlbwmsowmwymSLLZ0Lnm-16" value="xc = data.get(&quot;C&quot;)[:, u[0] - 1]" style="rounded=0;whiteSpace=wrap;html=1;" parent="1" vertex="1">
          <mxGeometry x="1195.02" y="1596.62" width="177.49" height="60" as="geometry" />
        </mxCell>
        <mxCell id="QlbwmsowmwymSLLZ0Lnm-17" style="edgeStyle=orthogonalEdgeStyle;rounded=0;orthogonalLoop=1;jettySize=auto;html=1;entryX=0.5;entryY=0;entryDx=0;entryDy=0;" parent="1" source="QlbwmsowmwymSLLZ0Lnm-18" target="QlbwmsowmwymSLLZ0Lnm-21" edge="1">
          <mxGeometry relative="1" as="geometry" />
        </mxCell>
        <mxCell id="QlbwmsowmwymSLLZ0Lnm-18" value="plot.xlabel(f&quot;Признак {u[0]} {u[1]}&quot;)" style="rounded=0;whiteSpace=wrap;html=1;" parent="1" vertex="1">
          <mxGeometry x="1204.38" y="1857.62" width="160" height="60" as="geometry" />
        </mxCell>
        <mxCell id="QlbwmsowmwymSLLZ0Lnm-19" style="edgeStyle=orthogonalEdgeStyle;rounded=0;orthogonalLoop=1;jettySize=auto;html=1;entryX=0.5;entryY=0;entryDx=0;entryDy=0;" parent="1" source="QlbwmsowmwymSLLZ0Lnm-20" target="QlbwmsowmwymSLLZ0Lnm-23" edge="1">
          <mxGeometry relative="1" as="geometry" />
        </mxCell>
        <mxCell id="QlbwmsowmwymSLLZ0Lnm-20" value="yc = data.get(&quot;C&quot;)[:, u[2] - 1]" style="rounded=0;whiteSpace=wrap;html=1;" parent="1" vertex="1">
          <mxGeometry x="1197.5" y="1681.62" width="172.5" height="60" as="geometry" />
        </mxCell>
        <mxCell id="QlbwmsowmwymSLLZ0Lnm-39" style="edgeStyle=orthogonalEdgeStyle;rounded=0;orthogonalLoop=1;jettySize=auto;html=1;entryX=0.5;entryY=0;entryDx=0;entryDy=0;" parent="1" source="QlbwmsowmwymSLLZ0Lnm-21" edge="1">
          <mxGeometry relative="1" as="geometry">
            <mxPoint x="1283.77" y="2041.62" as="targetPoint" />
          </mxGeometry>
        </mxCell>
        <mxCell id="QlbwmsowmwymSLLZ0Lnm-21" value="plot.ylabel(f&quot;Признак {u[2]} {u[3]}&quot;)" style="rounded=0;whiteSpace=wrap;html=1;" parent="1" vertex="1">
          <mxGeometry x="1187.52" y="1947.62" width="192.5" height="60" as="geometry" />
        </mxCell>
        <mxCell id="QlbwmsowmwymSLLZ0Lnm-22" style="edgeStyle=orthogonalEdgeStyle;rounded=0;orthogonalLoop=1;jettySize=auto;html=1;entryX=0.5;entryY=0;entryDx=0;entryDy=0;" parent="1" source="QlbwmsowmwymSLLZ0Lnm-23" target="QlbwmsowmwymSLLZ0Lnm-18" edge="1">
          <mxGeometry relative="1" as="geometry" />
        </mxCell>
        <mxCell id="QlbwmsowmwymSLLZ0Lnm-23" value="plot.scatter(xc, yc,marker=&#39;x&#39;, c=&#39;green&#39;)" style="rounded=0;whiteSpace=wrap;html=1;" parent="1" vertex="1">
          <mxGeometry x="1198.75" y="1767.62" width="170" height="60" as="geometry" />
        </mxCell>
        <mxCell id="QlbwmsowmwymSLLZ0Lnm-26" value="16" style="text;html=1;align=center;verticalAlign=middle;resizable=0;points=[];autosize=1;strokeColor=none;fillColor=none;" parent="1" vertex="1">
          <mxGeometry x="1060" y="1412" width="40" height="30" as="geometry" />
        </mxCell>
        <mxCell id="QlbwmsowmwymSLLZ0Lnm-27" value="17" style="text;html=1;align=center;verticalAlign=middle;resizable=0;points=[];autosize=1;strokeColor=none;fillColor=none;" parent="1" vertex="1">
          <mxGeometry x="980" y="1514" width="40" height="30" as="geometry" />
        </mxCell>
        <mxCell id="QlbwmsowmwymSLLZ0Lnm-28" value="18" style="text;html=1;align=center;verticalAlign=middle;resizable=0;points=[];autosize=1;strokeColor=none;fillColor=none;" parent="1" vertex="1">
          <mxGeometry x="970" y="1598" width="40" height="30" as="geometry" />
        </mxCell>
        <mxCell id="QlbwmsowmwymSLLZ0Lnm-29" value="19" style="text;html=1;align=center;verticalAlign=middle;resizable=0;points=[];autosize=1;strokeColor=none;fillColor=none;" parent="1" vertex="1">
          <mxGeometry x="990" y="1702" width="40" height="30" as="geometry" />
        </mxCell>
        <mxCell id="QlbwmsowmwymSLLZ0Lnm-30" value="20" style="text;html=1;align=center;verticalAlign=middle;resizable=0;points=[];autosize=1;strokeColor=none;fillColor=none;" parent="1" vertex="1">
          <mxGeometry x="980" y="1775" width="40" height="30" as="geometry" />
        </mxCell>
        <mxCell id="QlbwmsowmwymSLLZ0Lnm-31" value="21" style="text;html=1;align=center;verticalAlign=middle;resizable=0;points=[];autosize=1;strokeColor=none;fillColor=none;" parent="1" vertex="1">
          <mxGeometry x="970" y="1866" width="40" height="30" as="geometry" />
        </mxCell>
        <mxCell id="QlbwmsowmwymSLLZ0Lnm-32" value="22" style="text;html=1;align=center;verticalAlign=middle;resizable=0;points=[];autosize=1;strokeColor=none;fillColor=none;" parent="1" vertex="1">
          <mxGeometry x="1341.25" y="1399.12" width="40" height="30" as="geometry" />
        </mxCell>
        <mxCell id="QlbwmsowmwymSLLZ0Lnm-33" value="23" style="text;html=1;align=center;verticalAlign=middle;resizable=0;points=[];autosize=1;strokeColor=none;fillColor=none;" parent="1" vertex="1">
          <mxGeometry x="1341.25" y="1484.62" width="40" height="30" as="geometry" />
        </mxCell>
        <mxCell id="QlbwmsowmwymSLLZ0Lnm-34" value="24" style="text;html=1;align=center;verticalAlign=middle;resizable=0;points=[];autosize=1;strokeColor=none;fillColor=none;" parent="1" vertex="1">
          <mxGeometry x="1332.51" y="1574.62" width="40" height="30" as="geometry" />
        </mxCell>
        <mxCell id="QlbwmsowmwymSLLZ0Lnm-35" value="25" style="text;html=1;align=center;verticalAlign=middle;resizable=0;points=[];autosize=1;strokeColor=none;fillColor=none;" parent="1" vertex="1">
          <mxGeometry x="1341.25" y="1656.62" width="40" height="30" as="geometry" />
        </mxCell>
        <mxCell id="QlbwmsowmwymSLLZ0Lnm-36" value="26" style="text;html=1;align=center;verticalAlign=middle;resizable=0;points=[];autosize=1;strokeColor=none;fillColor=none;" parent="1" vertex="1">
          <mxGeometry x="1332.5" y="1746.62" width="40" height="30" as="geometry" />
        </mxCell>
        <mxCell id="QlbwmsowmwymSLLZ0Lnm-37" value="27" style="text;html=1;align=center;verticalAlign=middle;resizable=0;points=[];autosize=1;strokeColor=none;fillColor=none;" parent="1" vertex="1">
          <mxGeometry x="1332.51" y="1827.62" width="40" height="30" as="geometry" />
        </mxCell>
        <mxCell id="QlbwmsowmwymSLLZ0Lnm-38" value="28" style="text;html=1;align=center;verticalAlign=middle;resizable=0;points=[];autosize=1;strokeColor=none;fillColor=none;" parent="1" vertex="1">
          <mxGeometry x="1341.25" y="1921.62" width="40" height="30" as="geometry" />
        </mxCell>
        <mxCell id="QlbwmsowmwymSLLZ0Lnm-43" style="edgeStyle=orthogonalEdgeStyle;rounded=0;orthogonalLoop=1;jettySize=auto;html=1;" parent="1" source="QlbwmsowmwymSLLZ0Lnm-41" target="QlbwmsowmwymSLLZ0Lnm-42" edge="1">
          <mxGeometry relative="1" as="geometry" />
        </mxCell>
        <mxCell id="QlbwmsowmwymSLLZ0Lnm-41" value="avga = np.mean(data.get(&quot;A&quot;), axis=0)" style="rounded=0;whiteSpace=wrap;html=1;" parent="1" vertex="1">
          <mxGeometry x="1590" y="1505.5" width="120" height="60" as="geometry" />
        </mxCell>
        <mxCell id="QlbwmsowmwymSLLZ0Lnm-45" value="" style="edgeStyle=orthogonalEdgeStyle;rounded=0;orthogonalLoop=1;jettySize=auto;html=1;" parent="1" source="QlbwmsowmwymSLLZ0Lnm-42" target="QlbwmsowmwymSLLZ0Lnm-44" edge="1">
          <mxGeometry relative="1" as="geometry" />
        </mxCell>
        <mxCell id="QlbwmsowmwymSLLZ0Lnm-42" value="avga = np.array([avga[u[0] - 1], avga[u[2] - 1]])" style="rounded=0;whiteSpace=wrap;html=1;" parent="1" vertex="1">
          <mxGeometry x="1590" y="1594.5" width="120" height="60" as="geometry" />
        </mxCell>
        <mxCell id="QlbwmsowmwymSLLZ0Lnm-47" value="" style="edgeStyle=orthogonalEdgeStyle;rounded=0;orthogonalLoop=1;jettySize=auto;html=1;" parent="1" source="QlbwmsowmwymSLLZ0Lnm-44" target="QlbwmsowmwymSLLZ0Lnm-46" edge="1">
          <mxGeometry relative="1" as="geometry" />
        </mxCell>
        <mxCell id="QlbwmsowmwymSLLZ0Lnm-44" value="avgb = np.mean(data.get(&quot;B&quot;), axis=0)" style="rounded=0;whiteSpace=wrap;html=1;" parent="1" vertex="1">
          <mxGeometry x="1590" y="1691.5" width="120" height="60" as="geometry" />
        </mxCell>
        <mxCell id="QlbwmsowmwymSLLZ0Lnm-49" value="" style="edgeStyle=orthogonalEdgeStyle;rounded=0;orthogonalLoop=1;jettySize=auto;html=1;" parent="1" source="QlbwmsowmwymSLLZ0Lnm-46" target="QlbwmsowmwymSLLZ0Lnm-48" edge="1">
          <mxGeometry relative="1" as="geometry" />
        </mxCell>
        <mxCell id="QlbwmsowmwymSLLZ0Lnm-46" value="avgb = np.array([avgb[u[0] - 1], avgb[u[2] - 1]])" style="rounded=0;whiteSpace=wrap;html=1;" parent="1" vertex="1">
          <mxGeometry x="1590" y="1779.5" width="120" height="60" as="geometry" />
        </mxCell>
        <mxCell id="TXZZ_ZGlrFiqUkK3oK3g-7" value="" style="edgeStyle=orthogonalEdgeStyle;rounded=0;orthogonalLoop=1;jettySize=auto;html=1;" parent="1" source="QlbwmsowmwymSLLZ0Lnm-48" target="TXZZ_ZGlrFiqUkK3oK3g-6" edge="1">
          <mxGeometry relative="1" as="geometry" />
        </mxCell>
        <mxCell id="QlbwmsowmwymSLLZ0Lnm-48" value="vamb = (avga - avgb).reshape(1, 2)" style="rounded=0;whiteSpace=wrap;html=1;" parent="1" vertex="1">
          <mxGeometry x="1590" y="1873.5" width="120" height="60" as="geometry" />
        </mxCell>
        <mxCell id="QlbwmsowmwymSLLZ0Lnm-50" style="edgeStyle=orthogonalEdgeStyle;rounded=0;orthogonalLoop=1;jettySize=auto;html=1;" parent="1" source="QlbwmsowmwymSLLZ0Lnm-51" target="QlbwmsowmwymSLLZ0Lnm-53" edge="1">
          <mxGeometry relative="1" as="geometry" />
        </mxCell>
        <mxCell id="QlbwmsowmwymSLLZ0Lnm-51" value="vapb = (avga + avgb).reshape(2, 1)" style="rounded=0;whiteSpace=wrap;html=1;" parent="1" vertex="1">
          <mxGeometry x="1830" y="1497.5" width="120" height="60" as="geometry" />
        </mxCell>
        <mxCell id="QlbwmsowmwymSLLZ0Lnm-52" value="" style="edgeStyle=orthogonalEdgeStyle;rounded=0;orthogonalLoop=1;jettySize=auto;html=1;" parent="1" source="QlbwmsowmwymSLLZ0Lnm-53" target="QlbwmsowmwymSLLZ0Lnm-55" edge="1">
          <mxGeometry relative="1" as="geometry" />
        </mxCell>
        <mxCell id="QlbwmsowmwymSLLZ0Lnm-53" value="n = np.dot(vamb, vapb).item(" style="rounded=0;whiteSpace=wrap;html=1;" parent="1" vertex="1">
          <mxGeometry x="1830" y="1586.5" width="120" height="60" as="geometry" />
        </mxCell>
        <mxCell id="QlbwmsowmwymSLLZ0Lnm-54" value="" style="edgeStyle=orthogonalEdgeStyle;rounded=0;orthogonalLoop=1;jettySize=auto;html=1;" parent="1" source="QlbwmsowmwymSLLZ0Lnm-55" target="QlbwmsowmwymSLLZ0Lnm-57" edge="1">
          <mxGeometry relative="1" as="geometry" />
        </mxCell>
        <mxCell id="QlbwmsowmwymSLLZ0Lnm-55" value="x2 = [s for s in range(-100, 200, 5)]" style="rounded=0;whiteSpace=wrap;html=1;" parent="1" vertex="1">
          <mxGeometry x="1830" y="1683.5" width="120" height="60" as="geometry" />
        </mxCell>
        <mxCell id="QlbwmsowmwymSLLZ0Lnm-56" value="" style="edgeStyle=orthogonalEdgeStyle;rounded=0;orthogonalLoop=1;jettySize=auto;html=1;" parent="1" source="QlbwmsowmwymSLLZ0Lnm-57" target="QlbwmsowmwymSLLZ0Lnm-58" edge="1">
          <mxGeometry relative="1" as="geometry" />
        </mxCell>
        <mxCell id="QlbwmsowmwymSLLZ0Lnm-57" value="x1 = [((-(s * vamb[0, 1]) + 0.5 * n) / vamb[0, 0]) for s in x2]" style="rounded=0;whiteSpace=wrap;html=1;" parent="1" vertex="1">
          <mxGeometry x="1830" y="1771.5" width="120" height="60" as="geometry" />
        </mxCell>
        <mxCell id="QlbwmsowmwymSLLZ0Lnm-74" style="edgeStyle=orthogonalEdgeStyle;rounded=0;orthogonalLoop=1;jettySize=auto;html=1;entryX=0.5;entryY=0;entryDx=0;entryDy=0;" parent="1" source="QlbwmsowmwymSLLZ0Lnm-58" target="QlbwmsowmwymSLLZ0Lnm-62" edge="1">
          <mxGeometry relative="1" as="geometry" />
        </mxCell>
        <mxCell id="QlbwmsowmwymSLLZ0Lnm-58" value="plot.plot(x1, x2, c=&#39;purple&#39;)" style="rounded=0;whiteSpace=wrap;html=1;" parent="1" vertex="1">
          <mxGeometry x="1830" y="1865.5" width="120" height="60" as="geometry" />
        </mxCell>
        <mxCell id="QlbwmsowmwymSLLZ0Lnm-61" style="edgeStyle=orthogonalEdgeStyle;rounded=0;orthogonalLoop=1;jettySize=auto;html=1;entryX=0.5;entryY=0;entryDx=0;entryDy=0;" parent="1" target="QlbwmsowmwymSLLZ0Lnm-41" edge="1">
          <mxGeometry relative="1" as="geometry">
            <mxPoint x="1650" y="1473.4999999999998" as="sourcePoint" />
          </mxGeometry>
        </mxCell>
        <mxCell id="QlbwmsowmwymSLLZ0Lnm-62" value="40" style="ellipse;whiteSpace=wrap;html=1;aspect=fixed;" parent="1" vertex="1">
          <mxGeometry x="1870" y="1959.75" width="39.5" height="39.5" as="geometry" />
        </mxCell>
        <mxCell id="QlbwmsowmwymSLLZ0Lnm-63" value="30" style="text;html=1;align=center;verticalAlign=middle;resizable=0;points=[];autosize=1;strokeColor=none;fillColor=none;" parent="1" vertex="1">
          <mxGeometry x="1670" y="1472.5" width="40" height="30" as="geometry" />
        </mxCell>
        <mxCell id="QlbwmsowmwymSLLZ0Lnm-64" value="31" style="text;html=1;align=center;verticalAlign=middle;resizable=0;points=[];autosize=1;strokeColor=none;fillColor=none;" parent="1" vertex="1">
          <mxGeometry x="1690" y="1572.5" width="40" height="30" as="geometry" />
        </mxCell>
        <mxCell id="QlbwmsowmwymSLLZ0Lnm-65" value="32" style="text;html=1;align=center;verticalAlign=middle;resizable=0;points=[];autosize=1;strokeColor=none;fillColor=none;" parent="1" vertex="1">
          <mxGeometry x="1690" y="1662.5" width="40" height="30" as="geometry" />
        </mxCell>
        <mxCell id="QlbwmsowmwymSLLZ0Lnm-66" value="33" style="text;html=1;align=center;verticalAlign=middle;resizable=0;points=[];autosize=1;strokeColor=none;fillColor=none;" parent="1" vertex="1">
          <mxGeometry x="1690" y="1756.5" width="40" height="30" as="geometry" />
        </mxCell>
        <mxCell id="QlbwmsowmwymSLLZ0Lnm-68" value="34" style="text;html=1;align=center;verticalAlign=middle;resizable=0;points=[];autosize=1;strokeColor=none;fillColor=none;" parent="1" vertex="1">
          <mxGeometry x="1700" y="1852.5" width="40" height="30" as="geometry" />
        </mxCell>
        <mxCell id="QlbwmsowmwymSLLZ0Lnm-69" value="35" style="text;html=1;align=center;verticalAlign=middle;resizable=0;points=[];autosize=1;strokeColor=none;fillColor=none;" parent="1" vertex="1">
          <mxGeometry x="1930" y="1468.5" width="40" height="30" as="geometry" />
        </mxCell>
        <mxCell id="QlbwmsowmwymSLLZ0Lnm-70" value="36" style="text;html=1;align=center;verticalAlign=middle;resizable=0;points=[];autosize=1;strokeColor=none;fillColor=none;" parent="1" vertex="1">
          <mxGeometry x="1940" y="1568.5" width="40" height="30" as="geometry" />
        </mxCell>
        <mxCell id="QlbwmsowmwymSLLZ0Lnm-71" value="37" style="text;html=1;align=center;verticalAlign=middle;resizable=0;points=[];autosize=1;strokeColor=none;fillColor=none;" parent="1" vertex="1">
          <mxGeometry x="1930" y="1658.5" width="40" height="30" as="geometry" />
        </mxCell>
        <mxCell id="QlbwmsowmwymSLLZ0Lnm-72" value="38" style="text;html=1;align=center;verticalAlign=middle;resizable=0;points=[];autosize=1;strokeColor=none;fillColor=none;" parent="1" vertex="1">
          <mxGeometry x="1940" y="1748.5" width="40" height="30" as="geometry" />
        </mxCell>
        <mxCell id="QlbwmsowmwymSLLZ0Lnm-73" value="39" style="text;html=1;align=center;verticalAlign=middle;resizable=0;points=[];autosize=1;strokeColor=none;fillColor=none;" parent="1" vertex="1">
          <mxGeometry x="1930" y="1838.5" width="40" height="30" as="geometry" />
        </mxCell>
        <mxCell id="QlbwmsowmwymSLLZ0Lnm-132" style="edgeStyle=orthogonalEdgeStyle;rounded=0;orthogonalLoop=1;jettySize=auto;html=1;entryX=0.5;entryY=0;entryDx=0;entryDy=0;" parent="1" source="QlbwmsowmwymSLLZ0Lnm-75" target="QlbwmsowmwymSLLZ0Lnm-104" edge="1">
          <mxGeometry relative="1" as="geometry" />
        </mxCell>
        <mxCell id="QlbwmsowmwymSLLZ0Lnm-75" value="40" style="ellipse;whiteSpace=wrap;html=1;aspect=fixed;" parent="1" vertex="1">
          <mxGeometry x="2175" y="1410" width="40" height="40" as="geometry" />
        </mxCell>
        <mxCell id="QlbwmsowmwymSLLZ0Lnm-103" style="edgeStyle=orthogonalEdgeStyle;rounded=0;orthogonalLoop=1;jettySize=auto;html=1;" parent="1" source="QlbwmsowmwymSLLZ0Lnm-104" target="QlbwmsowmwymSLLZ0Lnm-106" edge="1">
          <mxGeometry relative="1" as="geometry" />
        </mxCell>
        <mxCell id="QlbwmsowmwymSLLZ0Lnm-104" value="plot.subplot(2, 1,2)" style="rounded=0;whiteSpace=wrap;html=1;" parent="1" vertex="1">
          <mxGeometry x="2135" y="1468" width="120" height="60" as="geometry" />
        </mxCell>
        <mxCell id="QlbwmsowmwymSLLZ0Lnm-105" value="" style="edgeStyle=orthogonalEdgeStyle;rounded=0;orthogonalLoop=1;jettySize=auto;html=1;" parent="1" source="QlbwmsowmwymSLLZ0Lnm-106" target="QlbwmsowmwymSLLZ0Lnm-108" edge="1">
          <mxGeometry relative="1" as="geometry" />
        </mxCell>
        <mxCell id="QlbwmsowmwymSLLZ0Lnm-106" value="avgab = np.sum(data.get(&quot;A&quot;) + data.get(&quot;B&quot;), axis=0) / (len(data.get(&quot;A&quot;)) * 2)" style="rounded=0;whiteSpace=wrap;html=1;" parent="1" vertex="1">
          <mxGeometry x="2090" y="1554" width="210" height="60" as="geometry" />
        </mxCell>
        <mxCell id="QlbwmsowmwymSLLZ0Lnm-107" value="" style="edgeStyle=orthogonalEdgeStyle;rounded=0;orthogonalLoop=1;jettySize=auto;html=1;" parent="1" source="QlbwmsowmwymSLLZ0Lnm-108" target="QlbwmsowmwymSLLZ0Lnm-110" edge="1">
          <mxGeometry relative="1" as="geometry" />
        </mxCell>
        <mxCell id="QlbwmsowmwymSLLZ0Lnm-108" value="avgab = np.array([avgab[u[0] - 1], avgab[u[2] - 1]])" style="rounded=0;whiteSpace=wrap;html=1;" parent="1" vertex="1">
          <mxGeometry x="2040" y="1657" width="310" height="60" as="geometry" />
        </mxCell>
        <mxCell id="QlbwmsowmwymSLLZ0Lnm-109" value="" style="edgeStyle=orthogonalEdgeStyle;rounded=0;orthogonalLoop=1;jettySize=auto;html=1;" parent="1" source="QlbwmsowmwymSLLZ0Lnm-110" target="QlbwmsowmwymSLLZ0Lnm-112" edge="1">
          <mxGeometry relative="1" as="geometry" />
        </mxCell>
        <mxCell id="QlbwmsowmwymSLLZ0Lnm-110" value="avgc_2 = np.mean(data.get(&quot;C&quot;), axis=0)" style="rounded=0;whiteSpace=wrap;html=1;" parent="1" vertex="1">
          <mxGeometry x="2082.5" y="1747" width="225" height="60" as="geometry" />
        </mxCell>
        <mxCell id="QlbwmsowmwymSLLZ0Lnm-111" style="edgeStyle=orthogonalEdgeStyle;rounded=0;orthogonalLoop=1;jettySize=auto;html=1;" parent="1" source="QlbwmsowmwymSLLZ0Lnm-112" target="QlbwmsowmwymSLLZ0Lnm-114" edge="1">
          <mxGeometry relative="1" as="geometry" />
        </mxCell>
        <mxCell id="QlbwmsowmwymSLLZ0Lnm-112" value="avgc_2 = np.array([avgc_2[u[0] - 1], avgc_2[u[2] - 1]])" style="rounded=0;whiteSpace=wrap;html=1;" parent="1" vertex="1">
          <mxGeometry x="2043.75" y="1835" width="302.5" height="60" as="geometry" />
        </mxCell>
        <mxCell id="TXZZ_ZGlrFiqUkK3oK3g-13" value="" style="edgeStyle=orthogonalEdgeStyle;rounded=0;orthogonalLoop=1;jettySize=auto;html=1;" parent="1" source="QlbwmsowmwymSLLZ0Lnm-114" target="TXZZ_ZGlrFiqUkK3oK3g-11" edge="1">
          <mxGeometry relative="1" as="geometry" />
        </mxCell>
        <mxCell id="QlbwmsowmwymSLLZ0Lnm-114" value="vecmc = (avgab - avgc_2).reshape(1, 2)" style="rounded=0;whiteSpace=wrap;html=1;" parent="1" vertex="1">
          <mxGeometry x="2082.5" y="1925" width="225" height="60" as="geometry" />
        </mxCell>
        <mxCell id="QlbwmsowmwymSLLZ0Lnm-115" value="" style="edgeStyle=orthogonalEdgeStyle;rounded=0;orthogonalLoop=1;jettySize=auto;html=1;" parent="1" source="QlbwmsowmwymSLLZ0Lnm-116" target="QlbwmsowmwymSLLZ0Lnm-118" edge="1">
          <mxGeometry relative="1" as="geometry" />
        </mxCell>
        <mxCell id="QlbwmsowmwymSLLZ0Lnm-116" value="vecpc = (avgab + avgc_2).reshape(2, 1)" style="rounded=0;whiteSpace=wrap;html=1;" parent="1" vertex="1">
          <mxGeometry x="2435" y="1439.5" width="235" height="60" as="geometry" />
        </mxCell>
        <mxCell id="QlbwmsowmwymSLLZ0Lnm-117" value="" style="edgeStyle=orthogonalEdgeStyle;rounded=0;orthogonalLoop=1;jettySize=auto;html=1;" parent="1" source="QlbwmsowmwymSLLZ0Lnm-118" target="QlbwmsowmwymSLLZ0Lnm-120" edge="1">
          <mxGeometry relative="1" as="geometry" />
        </mxCell>
        <mxCell id="QlbwmsowmwymSLLZ0Lnm-118" value="n = np.dot(vecmc, vecpc).item()" style="rounded=0;whiteSpace=wrap;html=1;" parent="1" vertex="1">
          <mxGeometry x="2445" y="1528.5" width="215" height="60" as="geometry" />
        </mxCell>
        <mxCell id="QlbwmsowmwymSLLZ0Lnm-137" style="edgeStyle=orthogonalEdgeStyle;rounded=0;orthogonalLoop=1;jettySize=auto;html=1;entryX=0.5;entryY=0;entryDx=0;entryDy=0;" parent="1" source="QlbwmsowmwymSLLZ0Lnm-120" target="QlbwmsowmwymSLLZ0Lnm-135" edge="1">
          <mxGeometry relative="1" as="geometry" />
        </mxCell>
        <mxCell id="QlbwmsowmwymSLLZ0Lnm-120" value="x11 = [((-(s * vecmc[0, 1]) + 0.5 * n) / vecmc[0, 0]) for s in x2]" style="rounded=0;whiteSpace=wrap;html=1;" parent="1" vertex="1">
          <mxGeometry x="2445" y="1613.5" width="215" height="60" as="geometry" />
        </mxCell>
        <mxCell id="QlbwmsowmwymSLLZ0Lnm-121" value="42" style="text;html=1;align=center;verticalAlign=middle;resizable=0;points=[];autosize=1;strokeColor=none;fillColor=none;" parent="1" vertex="1">
          <mxGeometry x="2245" y="1524" width="40" height="30" as="geometry" />
        </mxCell>
        <mxCell id="QlbwmsowmwymSLLZ0Lnm-122" value="43" style="text;html=1;align=center;verticalAlign=middle;resizable=0;points=[];autosize=1;strokeColor=none;fillColor=none;" parent="1" vertex="1">
          <mxGeometry x="2235" y="1625" width="40" height="30" as="geometry" />
        </mxCell>
        <mxCell id="QlbwmsowmwymSLLZ0Lnm-123" value="44" style="text;html=1;align=center;verticalAlign=middle;resizable=0;points=[];autosize=1;strokeColor=none;fillColor=none;" parent="1" vertex="1">
          <mxGeometry x="2235" y="1719" width="40" height="30" as="geometry" />
        </mxCell>
        <mxCell id="QlbwmsowmwymSLLZ0Lnm-124" value="45" style="text;html=1;align=center;verticalAlign=middle;resizable=0;points=[];autosize=1;strokeColor=none;fillColor=none;" parent="1" vertex="1">
          <mxGeometry x="2245" y="1815" width="40" height="30" as="geometry" />
        </mxCell>
        <mxCell id="QlbwmsowmwymSLLZ0Lnm-125" value="46" style="text;html=1;align=center;verticalAlign=middle;resizable=0;points=[];autosize=1;strokeColor=none;fillColor=none;" parent="1" vertex="1">
          <mxGeometry x="2235" y="1895" width="40" height="30" as="geometry" />
        </mxCell>
        <mxCell id="QlbwmsowmwymSLLZ0Lnm-126" value="47" style="text;html=1;align=center;verticalAlign=middle;resizable=0;points=[];autosize=1;strokeColor=none;fillColor=none;" parent="1" vertex="1">
          <mxGeometry x="2602.5" y="1418.5" width="40" height="30" as="geometry" />
        </mxCell>
        <mxCell id="QlbwmsowmwymSLLZ0Lnm-127" value="48" style="text;html=1;align=center;verticalAlign=middle;resizable=0;points=[];autosize=1;strokeColor=none;fillColor=none;" parent="1" vertex="1">
          <mxGeometry x="2592.5" y="1508.5" width="40" height="30" as="geometry" />
        </mxCell>
        <mxCell id="QlbwmsowmwymSLLZ0Lnm-128" value="49" style="text;html=1;align=center;verticalAlign=middle;resizable=0;points=[];autosize=1;strokeColor=none;fillColor=none;" parent="1" vertex="1">
          <mxGeometry x="2655" y="1598.5" width="40" height="30" as="geometry" />
        </mxCell>
        <mxCell id="QlbwmsowmwymSLLZ0Lnm-143" style="edgeStyle=orthogonalEdgeStyle;rounded=0;orthogonalLoop=1;jettySize=auto;html=1;entryX=0.5;entryY=0;entryDx=0;entryDy=0;" parent="1" source="QlbwmsowmwymSLLZ0Lnm-135" target="QlbwmsowmwymSLLZ0Lnm-138" edge="1">
          <mxGeometry relative="1" as="geometry" />
        </mxCell>
        <mxCell id="QlbwmsowmwymSLLZ0Lnm-135" value="plot.scatter(xa, ya, c=&#39;red&#39;)" style="whiteSpace=wrap;html=1;rounded=0;" parent="1" vertex="1">
          <mxGeometry x="2450" y="1694" width="205" height="25" as="geometry" />
        </mxCell>
        <mxCell id="QlbwmsowmwymSLLZ0Lnm-145" style="edgeStyle=orthogonalEdgeStyle;rounded=0;orthogonalLoop=1;jettySize=auto;html=1;entryX=0.5;entryY=0;entryDx=0;entryDy=0;" parent="1" source="QlbwmsowmwymSLLZ0Lnm-138" target="QlbwmsowmwymSLLZ0Lnm-139" edge="1">
          <mxGeometry relative="1" as="geometry" />
        </mxCell>
        <mxCell id="QlbwmsowmwymSLLZ0Lnm-138" value="plot.scatter(xb, yb, c=&#39;blue&#39;)" style="whiteSpace=wrap;html=1;rounded=0;" parent="1" vertex="1">
          <mxGeometry x="2450" y="1744" width="205" height="25" as="geometry" />
        </mxCell>
        <mxCell id="QlbwmsowmwymSLLZ0Lnm-147" style="edgeStyle=orthogonalEdgeStyle;rounded=0;orthogonalLoop=1;jettySize=auto;html=1;entryX=0.5;entryY=0;entryDx=0;entryDy=0;" parent="1" source="QlbwmsowmwymSLLZ0Lnm-139" target="QlbwmsowmwymSLLZ0Lnm-140" edge="1">
          <mxGeometry relative="1" as="geometry" />
        </mxCell>
        <mxCell id="QlbwmsowmwymSLLZ0Lnm-139" value="plot.scatter(xc, yc, c=&#39;green&#39;)" style="whiteSpace=wrap;html=1;rounded=0;" parent="1" vertex="1">
          <mxGeometry x="2450" y="1788.5" width="205" height="25" as="geometry" />
        </mxCell>
        <mxCell id="QlbwmsowmwymSLLZ0Lnm-148" style="edgeStyle=orthogonalEdgeStyle;rounded=0;orthogonalLoop=1;jettySize=auto;html=1;entryX=0.5;entryY=0;entryDx=0;entryDy=0;" parent="1" source="QlbwmsowmwymSLLZ0Lnm-140" target="QlbwmsowmwymSLLZ0Lnm-141" edge="1">
          <mxGeometry relative="1" as="geometry" />
        </mxCell>
        <mxCell id="QlbwmsowmwymSLLZ0Lnm-140" value="plot.plot(x11, x2, c=&#39;brown&#39;)" style="whiteSpace=wrap;html=1;rounded=0;" parent="1" vertex="1">
          <mxGeometry x="2450" y="1828.5" width="205" height="25" as="geometry" />
        </mxCell>
        <mxCell id="Wh9DaOdv-PpbPZaOHFyv-7" value="" style="edgeStyle=orthogonalEdgeStyle;rounded=0;orthogonalLoop=1;jettySize=auto;html=1;" parent="1" source="QlbwmsowmwymSLLZ0Lnm-141" target="Wh9DaOdv-PpbPZaOHFyv-6" edge="1">
          <mxGeometry relative="1" as="geometry" />
        </mxCell>
        <mxCell id="QlbwmsowmwymSLLZ0Lnm-141" value="&lt;div&gt;plot.show()&lt;/div&gt;" style="whiteSpace=wrap;html=1;rounded=0;" parent="1" vertex="1">
          <mxGeometry x="2450" y="1873.5" width="205" height="25" as="geometry" />
        </mxCell>
        <mxCell id="QlbwmsowmwymSLLZ0Lnm-150" value="41" style="text;html=1;align=center;verticalAlign=middle;resizable=0;points=[];autosize=1;strokeColor=none;fillColor=none;" parent="1" vertex="1">
          <mxGeometry x="2240" y="1448" width="40" height="30" as="geometry" />
        </mxCell>
        <mxCell id="QlbwmsowmwymSLLZ0Lnm-151" value="50" style="text;html=1;align=center;verticalAlign=middle;resizable=0;points=[];autosize=1;strokeColor=none;fillColor=none;" parent="1" vertex="1">
          <mxGeometry x="2647.5" y="1681.5" width="40" height="30" as="geometry" />
        </mxCell>
        <mxCell id="QlbwmsowmwymSLLZ0Lnm-152" value="51" style="text;html=1;align=center;verticalAlign=middle;resizable=0;points=[];autosize=1;strokeColor=none;fillColor=none;" parent="1" vertex="1">
          <mxGeometry x="2647.5" y="1731.5" width="40" height="30" as="geometry" />
        </mxCell>
        <mxCell id="QlbwmsowmwymSLLZ0Lnm-153" value="52" style="text;html=1;align=center;verticalAlign=middle;resizable=0;points=[];autosize=1;strokeColor=none;fillColor=none;" parent="1" vertex="1">
          <mxGeometry x="2647.5" y="1778.5" width="40" height="30" as="geometry" />
        </mxCell>
        <mxCell id="QlbwmsowmwymSLLZ0Lnm-154" value="53" style="text;html=1;align=center;verticalAlign=middle;resizable=0;points=[];autosize=1;strokeColor=none;fillColor=none;" parent="1" vertex="1">
          <mxGeometry x="2647.5" y="1821.5" width="40" height="30" as="geometry" />
        </mxCell>
        <mxCell id="QlbwmsowmwymSLLZ0Lnm-155" value="54" style="text;html=1;align=center;verticalAlign=middle;resizable=0;points=[];autosize=1;strokeColor=none;fillColor=none;" parent="1" vertex="1">
          <mxGeometry x="2647.5" y="1861.5" width="40" height="30" as="geometry" />
        </mxCell>
        <mxCell id="QlbwmsowmwymSLLZ0Lnm-160" style="edgeStyle=orthogonalEdgeStyle;rounded=0;orthogonalLoop=1;jettySize=auto;html=1;entryX=0.5;entryY=0;entryDx=0;entryDy=0;" parent="1" target="QlbwmsowmwymSLLZ0Lnm-159" edge="1">
          <mxGeometry relative="1" as="geometry">
            <mxPoint x="1915" y="110" as="sourcePoint" />
          </mxGeometry>
        </mxCell>
        <mxCell id="QlbwmsowmwymSLLZ0Lnm-163" style="edgeStyle=orthogonalEdgeStyle;rounded=0;orthogonalLoop=1;jettySize=auto;html=1;entryX=0.5;entryY=0;entryDx=0;entryDy=0;" parent="1" source="QlbwmsowmwymSLLZ0Lnm-159" target="QlbwmsowmwymSLLZ0Lnm-162" edge="1">
          <mxGeometry relative="1" as="geometry" />
        </mxCell>
        <mxCell id="QlbwmsowmwymSLLZ0Lnm-159" value="points = np.vstack([np.column_stack([xa, ya]), np.column_stack([xb, yb]), np.column_stack([xc, yc])])" style="rounded=0;whiteSpace=wrap;html=1;" parent="1" vertex="1">
          <mxGeometry x="1690" y="164" width="450" height="60" as="geometry" />
        </mxCell>
        <mxCell id="QlbwmsowmwymSLLZ0Lnm-167" style="edgeStyle=orthogonalEdgeStyle;rounded=0;orthogonalLoop=1;jettySize=auto;html=1;entryX=0.5;entryY=0;entryDx=0;entryDy=0;" parent="1" source="QlbwmsowmwymSLLZ0Lnm-162" target="QlbwmsowmwymSLLZ0Lnm-166" edge="1">
          <mxGeometry relative="1" as="geometry" />
        </mxCell>
        <mxCell id="QlbwmsowmwymSLLZ0Lnm-170" style="edgeStyle=orthogonalEdgeStyle;rounded=0;orthogonalLoop=1;jettySize=auto;html=1;entryX=0.5;entryY=0;entryDx=0;entryDy=0;" parent="1" source="QlbwmsowmwymSLLZ0Lnm-162" target="QlbwmsowmwymSLLZ0Lnm-169" edge="1">
          <mxGeometry relative="1" as="geometry">
            <Array as="points">
              <mxPoint x="2010" y="303" />
              <mxPoint x="2010" y="480" />
              <mxPoint x="1915" y="480" />
            </Array>
          </mxGeometry>
        </mxCell>
        <mxCell id="QlbwmsowmwymSLLZ0Lnm-162" value="i in points" style="shape=hexagon;perimeter=hexagonPerimeter2;whiteSpace=wrap;html=1;fixedSize=1;" parent="1" vertex="1">
          <mxGeometry x="1855" y="263" width="120" height="80" as="geometry" />
        </mxCell>
        <mxCell id="QlbwmsowmwymSLLZ0Lnm-164" value="56" style="text;html=1;align=center;verticalAlign=middle;resizable=0;points=[];autosize=1;strokeColor=none;fillColor=none;" parent="1" vertex="1">
          <mxGeometry x="1990" y="138" width="40" height="30" as="geometry" />
        </mxCell>
        <mxCell id="QlbwmsowmwymSLLZ0Lnm-165" value="57" style="text;html=1;align=center;verticalAlign=middle;resizable=0;points=[];autosize=1;strokeColor=none;fillColor=none;" parent="1" vertex="1">
          <mxGeometry x="1940" y="238" width="40" height="30" as="geometry" />
        </mxCell>
        <mxCell id="QlbwmsowmwymSLLZ0Lnm-168" style="edgeStyle=orthogonalEdgeStyle;rounded=0;orthogonalLoop=1;jettySize=auto;html=1;entryX=0;entryY=0.5;entryDx=0;entryDy=0;" parent="1" source="QlbwmsowmwymSLLZ0Lnm-166" target="QlbwmsowmwymSLLZ0Lnm-162" edge="1">
          <mxGeometry relative="1" as="geometry">
            <Array as="points">
              <mxPoint x="1915" y="460" />
              <mxPoint x="1835" y="460" />
              <mxPoint x="1835" y="303" />
            </Array>
          </mxGeometry>
        </mxCell>
        <mxCell id="QlbwmsowmwymSLLZ0Lnm-166" value="knn(i)" style="shape=process;whiteSpace=wrap;html=1;backgroundOutline=1;" parent="1" vertex="1">
          <mxGeometry x="1855" y="378" width="120" height="60" as="geometry" />
        </mxCell>
        <mxCell id="QlbwmsowmwymSLLZ0Lnm-169" value="конец" style="ellipse;whiteSpace=wrap;html=1;" parent="1" vertex="1">
          <mxGeometry x="1855" y="500" width="120" height="80" as="geometry" />
        </mxCell>
        <mxCell id="QlbwmsowmwymSLLZ0Lnm-171" value="58" style="text;html=1;align=center;verticalAlign=middle;resizable=0;points=[];autosize=1;strokeColor=none;fillColor=none;" parent="1" vertex="1">
          <mxGeometry x="1970" y="368" width="40" height="30" as="geometry" />
        </mxCell>
        <mxCell id="QlbwmsowmwymSLLZ0Lnm-172" value="59" style="text;html=1;align=center;verticalAlign=middle;resizable=0;points=[];autosize=1;strokeColor=none;fillColor=none;" parent="1" vertex="1">
          <mxGeometry x="1970" y="498" width="40" height="30" as="geometry" />
        </mxCell>
        <mxCell id="QlbwmsowmwymSLLZ0Lnm-173" value="knn(point, k=2)" style="text;html=1;align=center;verticalAlign=middle;resizable=0;points=[];autosize=1;strokeColor=none;fillColor=none;" parent="1" vertex="1">
          <mxGeometry x="2260" y="108" width="100" height="30" as="geometry" />
        </mxCell>
        <mxCell id="QlbwmsowmwymSLLZ0Lnm-177" style="edgeStyle=orthogonalEdgeStyle;rounded=0;orthogonalLoop=1;jettySize=auto;html=1;" parent="1" source="QlbwmsowmwymSLLZ0Lnm-174" target="QlbwmsowmwymSLLZ0Lnm-175" edge="1">
          <mxGeometry relative="1" as="geometry" />
        </mxCell>
        <mxCell id="QlbwmsowmwymSLLZ0Lnm-174" value="&lt;span style=&quot;text-wrap: nowrap;&quot;&gt;knn(point, k=2)&lt;/span&gt;" style="ellipse;whiteSpace=wrap;html=1;" parent="1" vertex="1">
          <mxGeometry x="2260" y="164" width="120" height="80" as="geometry" />
        </mxCell>
        <mxCell id="QlbwmsowmwymSLLZ0Lnm-178" style="edgeStyle=orthogonalEdgeStyle;rounded=0;orthogonalLoop=1;jettySize=auto;html=1;entryX=0.5;entryY=0;entryDx=0;entryDy=0;" parent="1" source="QlbwmsowmwymSLLZ0Lnm-175" target="QlbwmsowmwymSLLZ0Lnm-176" edge="1">
          <mxGeometry relative="1" as="geometry" />
        </mxCell>
        <mxCell id="QlbwmsowmwymSLLZ0Lnm-175" value="&amp;nbsp;cls = np.array([&#39;A&#39;] * len(data.get(&quot;A&quot;)) + [&#39;B&#39;]*len(data.get(&quot;B&quot;)) + [&#39;C&#39;]*len(data.get(&quot;C&quot;)))" style="rounded=0;whiteSpace=wrap;html=1;" parent="1" vertex="1">
          <mxGeometry x="2170" y="281" width="300" height="60" as="geometry" />
        </mxCell>
        <mxCell id="QlbwmsowmwymSLLZ0Lnm-180" style="edgeStyle=orthogonalEdgeStyle;rounded=0;orthogonalLoop=1;jettySize=auto;html=1;entryX=0.5;entryY=0;entryDx=0;entryDy=0;" parent="1" source="QlbwmsowmwymSLLZ0Lnm-176" target="QlbwmsowmwymSLLZ0Lnm-179" edge="1">
          <mxGeometry relative="1" as="geometry" />
        </mxCell>
        <mxCell id="QlbwmsowmwymSLLZ0Lnm-176" value="dist = [[distance(point, p), cl] for p, cl in zip(points, cls)]" style="shape=process;whiteSpace=wrap;html=1;backgroundOutline=1;" parent="1" vertex="1">
          <mxGeometry x="2170" y="378" width="300" height="60" as="geometry" />
        </mxCell>
        <mxCell id="QlbwmsowmwymSLLZ0Lnm-183" style="edgeStyle=orthogonalEdgeStyle;rounded=0;orthogonalLoop=1;jettySize=auto;html=1;" parent="1" source="QlbwmsowmwymSLLZ0Lnm-179" target="QlbwmsowmwymSLLZ0Lnm-181" edge="1">
          <mxGeometry relative="1" as="geometry" />
        </mxCell>
        <mxCell id="QlbwmsowmwymSLLZ0Lnm-179" value="dist = sorted(dist, key=lambda x: x[0])[1:k+1]" style="rounded=0;whiteSpace=wrap;html=1;" parent="1" vertex="1">
          <mxGeometry x="2195" y="475" width="250" height="60" as="geometry" />
        </mxCell>
        <mxCell id="QlbwmsowmwymSLLZ0Lnm-184" style="edgeStyle=orthogonalEdgeStyle;rounded=0;orthogonalLoop=1;jettySize=auto;html=1;" parent="1" source="QlbwmsowmwymSLLZ0Lnm-181" target="QlbwmsowmwymSLLZ0Lnm-182" edge="1">
          <mxGeometry relative="1" as="geometry" />
        </mxCell>
        <mxCell id="QlbwmsowmwymSLLZ0Lnm-181" value="dist = [i[1] for i in dist]" style="rounded=0;whiteSpace=wrap;html=1;" parent="1" vertex="1">
          <mxGeometry x="2260" y="567" width="120" height="60" as="geometry" />
        </mxCell>
        <mxCell id="QlbwmsowmwymSLLZ0Lnm-186" style="edgeStyle=orthogonalEdgeStyle;rounded=0;orthogonalLoop=1;jettySize=auto;html=1;" parent="1" source="QlbwmsowmwymSLLZ0Lnm-182" target="QlbwmsowmwymSLLZ0Lnm-185" edge="1">
          <mxGeometry relative="1" as="geometry" />
        </mxCell>
        <mxCell id="QlbwmsowmwymSLLZ0Lnm-182" value="Counter(dist).most_common()[0][0]" style="shape=document;whiteSpace=wrap;html=1;boundedLbl=1;" parent="1" vertex="1">
          <mxGeometry x="2222.5" y="655" width="195" height="80" as="geometry" />
        </mxCell>
        <mxCell id="QlbwmsowmwymSLLZ0Lnm-185" value="выход" style="ellipse;whiteSpace=wrap;html=1;" parent="1" vertex="1">
          <mxGeometry x="2260" y="765" width="120" height="80" as="geometry" />
        </mxCell>
        <mxCell id="QlbwmsowmwymSLLZ0Lnm-187" value="1" style="text;html=1;align=center;verticalAlign=middle;resizable=0;points=[];autosize=1;strokeColor=none;fillColor=none;" parent="1" vertex="1">
          <mxGeometry x="2365" y="138" width="30" height="30" as="geometry" />
        </mxCell>
        <mxCell id="QlbwmsowmwymSLLZ0Lnm-188" value="2" style="text;html=1;align=center;verticalAlign=middle;resizable=0;points=[];autosize=1;strokeColor=none;fillColor=none;" parent="1" vertex="1">
          <mxGeometry x="2425" y="258" width="30" height="30" as="geometry" />
        </mxCell>
        <mxCell id="QlbwmsowmwymSLLZ0Lnm-189" value="3" style="text;html=1;align=center;verticalAlign=middle;resizable=0;points=[];autosize=1;strokeColor=none;fillColor=none;" parent="1" vertex="1">
          <mxGeometry x="2475" y="368" width="30" height="30" as="geometry" />
        </mxCell>
        <mxCell id="QlbwmsowmwymSLLZ0Lnm-190" value="4" style="text;html=1;align=center;verticalAlign=middle;resizable=0;points=[];autosize=1;strokeColor=none;fillColor=none;" parent="1" vertex="1">
          <mxGeometry x="2445" y="468" width="30" height="30" as="geometry" />
        </mxCell>
        <mxCell id="QlbwmsowmwymSLLZ0Lnm-191" value="5" style="text;html=1;align=center;verticalAlign=middle;resizable=0;points=[];autosize=1;strokeColor=none;fillColor=none;" parent="1" vertex="1">
          <mxGeometry x="2375" y="578" width="30" height="30" as="geometry" />
        </mxCell>
        <mxCell id="QlbwmsowmwymSLLZ0Lnm-192" value="6" style="text;html=1;align=center;verticalAlign=middle;resizable=0;points=[];autosize=1;strokeColor=none;fillColor=none;" parent="1" vertex="1">
          <mxGeometry x="2435" y="668" width="30" height="30" as="geometry" />
        </mxCell>
        <mxCell id="QlbwmsowmwymSLLZ0Lnm-193" value="7" style="text;html=1;align=center;verticalAlign=middle;resizable=0;points=[];autosize=1;strokeColor=none;fillColor=none;" parent="1" vertex="1">
          <mxGeometry x="2365" y="748" width="30" height="30" as="geometry" />
        </mxCell>
        <mxCell id="QlbwmsowmwymSLLZ0Lnm-194" value="distance(pnt1, pnt2)" style="text;whiteSpace=wrap;" parent="1" vertex="1">
          <mxGeometry x="1730" y="663" width="140" height="40" as="geometry" />
        </mxCell>
        <mxCell id="QlbwmsowmwymSLLZ0Lnm-197" style="edgeStyle=orthogonalEdgeStyle;rounded=0;orthogonalLoop=1;jettySize=auto;html=1;entryX=0.5;entryY=0;entryDx=0;entryDy=0;" parent="1" source="QlbwmsowmwymSLLZ0Lnm-195" target="QlbwmsowmwymSLLZ0Lnm-196" edge="1">
          <mxGeometry relative="1" as="geometry" />
        </mxCell>
        <mxCell id="QlbwmsowmwymSLLZ0Lnm-195" value="&lt;span style=&quot;text-align: left;&quot;&gt;distance(pnt1, pnt2)&lt;/span&gt;" style="ellipse;whiteSpace=wrap;html=1;" parent="1" vertex="1">
          <mxGeometry x="1850" y="715" width="120" height="80" as="geometry" />
        </mxCell>
        <mxCell id="QlbwmsowmwymSLLZ0Lnm-200" style="edgeStyle=orthogonalEdgeStyle;rounded=0;orthogonalLoop=1;jettySize=auto;html=1;entryX=0.5;entryY=0;entryDx=0;entryDy=0;" parent="1" source="QlbwmsowmwymSLLZ0Lnm-196" target="QlbwmsowmwymSLLZ0Lnm-198" edge="1">
          <mxGeometry relative="1" as="geometry" />
        </mxCell>
        <mxCell id="QlbwmsowmwymSLLZ0Lnm-196" value="d =&amp;nbsp;np.sqrt(np.sum((pnt1 - pnt2) ** 2))&amp;nbsp;" style="rounded=0;whiteSpace=wrap;html=1;" parent="1" vertex="1">
          <mxGeometry x="1805" y="828" width="210" height="60" as="geometry" />
        </mxCell>
        <mxCell id="QlbwmsowmwymSLLZ0Lnm-201" style="edgeStyle=orthogonalEdgeStyle;rounded=0;orthogonalLoop=1;jettySize=auto;html=1;entryX=0.5;entryY=0;entryDx=0;entryDy=0;" parent="1" source="QlbwmsowmwymSLLZ0Lnm-198" target="QlbwmsowmwymSLLZ0Lnm-199" edge="1">
          <mxGeometry relative="1" as="geometry" />
        </mxCell>
        <mxCell id="QlbwmsowmwymSLLZ0Lnm-198" value="return d" style="rounded=0;whiteSpace=wrap;html=1;" parent="1" vertex="1">
          <mxGeometry x="1850" y="918" width="120" height="60" as="geometry" />
        </mxCell>
        <mxCell id="QlbwmsowmwymSLLZ0Lnm-199" value="выход" style="ellipse;whiteSpace=wrap;html=1;" parent="1" vertex="1">
          <mxGeometry x="1850" y="1016" width="120" height="80" as="geometry" />
        </mxCell>
        <mxCell id="QlbwmsowmwymSLLZ0Lnm-202" value="1" style="text;html=1;align=center;verticalAlign=middle;resizable=0;points=[];autosize=1;strokeColor=none;fillColor=none;" parent="1" vertex="1">
          <mxGeometry x="1975" y="708" width="30" height="30" as="geometry" />
        </mxCell>
        <mxCell id="QlbwmsowmwymSLLZ0Lnm-203" value="2" style="text;html=1;align=center;verticalAlign=middle;resizable=0;points=[];autosize=1;strokeColor=none;fillColor=none;" parent="1" vertex="1">
          <mxGeometry x="1995" y="798" width="30" height="30" as="geometry" />
        </mxCell>
        <mxCell id="QlbwmsowmwymSLLZ0Lnm-204" value="3" style="text;html=1;align=center;verticalAlign=middle;resizable=0;points=[];autosize=1;strokeColor=none;fillColor=none;" parent="1" vertex="1">
          <mxGeometry x="1975" y="918" width="30" height="30" as="geometry" />
        </mxCell>
        <mxCell id="QlbwmsowmwymSLLZ0Lnm-205" value="4" style="text;html=1;align=center;verticalAlign=middle;resizable=0;points=[];autosize=1;strokeColor=none;fillColor=none;" parent="1" vertex="1">
          <mxGeometry x="1955" y="1018" width="30" height="30" as="geometry" />
        </mxCell>
        <mxCell id="Wh9DaOdv-PpbPZaOHFyv-1" value="15" style="shape=offPageConnector;whiteSpace=wrap;html=1;" parent="1" vertex="1">
          <mxGeometry x="336" y="960" width="52" height="50" as="geometry" />
        </mxCell>
        <mxCell id="Wh9DaOdv-PpbPZaOHFyv-2" value="15" style="shape=offPageConnector;whiteSpace=wrap;html=1;" parent="1" vertex="1">
          <mxGeometry x="896.5" y="1360" width="52" height="50" as="geometry" />
        </mxCell>
        <mxCell id="Wh9DaOdv-PpbPZaOHFyv-3" value="29" style="shape=offPageConnector;whiteSpace=wrap;html=1;" parent="1" vertex="1">
          <mxGeometry x="1624" y="1422.5" width="52" height="50" as="geometry" />
        </mxCell>
        <mxCell id="Wh9DaOdv-PpbPZaOHFyv-4" value="29" style="shape=offPageConnector;whiteSpace=wrap;html=1;" parent="1" vertex="1">
          <mxGeometry x="1258.38" y="2041.62" width="52" height="50" as="geometry" />
        </mxCell>
        <mxCell id="Wh9DaOdv-PpbPZaOHFyv-5" value="55" style="shape=offPageConnector;whiteSpace=wrap;html=1;" parent="1" vertex="1">
          <mxGeometry x="1889" y="60" width="52" height="50" as="geometry" />
        </mxCell>
        <mxCell id="Wh9DaOdv-PpbPZaOHFyv-6" value="55" style="shape=offPageConnector;whiteSpace=wrap;html=1;" parent="1" vertex="1">
          <mxGeometry x="2526.5" y="1941.5" width="52" height="50" as="geometry" />
        </mxCell>
        <mxCell id="TXZZ_ZGlrFiqUkK3oK3g-1" value="22" style="ellipse;whiteSpace=wrap;html=1;aspect=fixed;" parent="1" vertex="1">
          <mxGeometry x="902.51" y="1990" width="40" height="40" as="geometry" />
        </mxCell>
        <mxCell id="TXZZ_ZGlrFiqUkK3oK3g-4" value="" style="edgeStyle=orthogonalEdgeStyle;rounded=0;orthogonalLoop=1;jettySize=auto;html=1;" parent="1" source="TXZZ_ZGlrFiqUkK3oK3g-2" target="QlbwmsowmwymSLLZ0Lnm-5" edge="1">
          <mxGeometry relative="1" as="geometry" />
        </mxCell>
        <mxCell id="TXZZ_ZGlrFiqUkK3oK3g-2" value="22" style="ellipse;whiteSpace=wrap;html=1;aspect=fixed;" parent="1" vertex="1">
          <mxGeometry x="1263.75" y="1342.37" width="40" height="40" as="geometry" />
        </mxCell>
        <mxCell id="TXZZ_ZGlrFiqUkK3oK3g-8" value="" style="edgeStyle=orthogonalEdgeStyle;rounded=0;orthogonalLoop=1;jettySize=auto;html=1;" parent="1" source="TXZZ_ZGlrFiqUkK3oK3g-5" target="QlbwmsowmwymSLLZ0Lnm-51" edge="1">
          <mxGeometry relative="1" as="geometry" />
        </mxCell>
        <mxCell id="TXZZ_ZGlrFiqUkK3oK3g-5" value="35" style="ellipse;whiteSpace=wrap;html=1;aspect=fixed;" parent="1" vertex="1">
          <mxGeometry x="1870" y="1422.5" width="40" height="40" as="geometry" />
        </mxCell>
        <mxCell id="TXZZ_ZGlrFiqUkK3oK3g-6" value="35" style="ellipse;whiteSpace=wrap;html=1;aspect=fixed;" parent="1" vertex="1">
          <mxGeometry x="1630" y="1962.5" width="40" height="40" as="geometry" />
        </mxCell>
        <mxCell id="TXZZ_ZGlrFiqUkK3oK3g-14" value="" style="edgeStyle=orthogonalEdgeStyle;rounded=0;orthogonalLoop=1;jettySize=auto;html=1;" parent="1" source="TXZZ_ZGlrFiqUkK3oK3g-10" target="QlbwmsowmwymSLLZ0Lnm-116" edge="1">
          <mxGeometry relative="1" as="geometry" />
        </mxCell>
        <mxCell id="TXZZ_ZGlrFiqUkK3oK3g-10" value="47" style="ellipse;whiteSpace=wrap;html=1;aspect=fixed;" parent="1" vertex="1">
          <mxGeometry x="2532.75" y="1365.25" width="39.5" height="39.5" as="geometry" />
        </mxCell>
        <mxCell id="TXZZ_ZGlrFiqUkK3oK3g-11" value="47" style="ellipse;whiteSpace=wrap;html=1;aspect=fixed;" parent="1" vertex="1">
          <mxGeometry x="2175" y="2015.75" width="39.5" height="39.5" as="geometry" />
        </mxCell>
        <mxCell id="VBbj9UXmNhvao8wKRBxG-8" style="edgeStyle=orthogonalEdgeStyle;rounded=0;orthogonalLoop=1;jettySize=auto;html=1;exitX=0.5;exitY=1;exitDx=0;exitDy=0;entryX=0.5;entryY=0;entryDx=0;entryDy=0;" edge="1" parent="1" source="VBbj9UXmNhvao8wKRBxG-2" target="Fwsatk4shX5yyOx8U_N0-43">
          <mxGeometry relative="1" as="geometry" />
        </mxCell>
        <mxCell id="VBbj9UXmNhvao8wKRBxG-2" value="4" style="ellipse;whiteSpace=wrap;html=1;aspect=fixed;" vertex="1" parent="1">
          <mxGeometry x="291" y="110" width="40" height="40" as="geometry" />
        </mxCell>
        <mxCell id="VBbj9UXmNhvao8wKRBxG-3" value="4" style="ellipse;whiteSpace=wrap;html=1;aspect=fixed;" vertex="1" parent="1">
          <mxGeometry x="-16.5" y="413.4999999999999" width="40" height="40" as="geometry" />
        </mxCell>
      </root>
    </mxGraphModel>
  </diagram>
</mxfile>
